<svg xmlns="http://www.w3.org/2000/svg" xmlns:svg="http://www.w3.org/2000/svg" xmlns:xlink="http://www.w3.org/1999/xlink" viewBox="0 0 51.674 51.674">

<symbol viewBox="0 0 64 64" id="arrowLeft">
  <path data-name="layer1" d="M25.121 47.121L11.128 33.128l-.012-.012L9 31l16.121-16.121a3 3 0 0 1 4.242 4.242l-8.879 8.88h29.517a3 3 0 1 1 0 6H20.486l8.877 8.878a3 3 0 0 1-4.242 4.242z"
    stroke-miterlimit="10" stroke-linejoin="round"
  stroke-linecap="round"></path>
</symbol>

<symbol viewBox="0 0 64 64" id="arrowRight">
  <path data-name="layer1" d="M38.879 47.121l13.993-13.993.012-.012L55 31 38.879 14.879a3 3 0 0 0-4.242 4.242l8.879 8.88H13.999a3 3 0 0 0 0 6h29.515l-8.877 8.878a3 3 0 0 0 4.242 4.242z"
  stroke-miterlimit="10" stroke-linejoin="round" stroke-linecap="round"></path>
</symbol>

<symbol viewBox="0 0 64 64" id="characters">
  <circle data-name="layer2" cx="32" cy="9" r="7" stroke-miterlimit="10" stroke-linejoin="round" stroke-linecap="round"></circle>
  <path data-name="layer1" d="M43 22h-5l-6 10-6-10h-5a3 3 0 0 0-3 3v16a3 3 0 0 0 3 3h3v15a3 3 0 0 0 3 3h10a3 3 0 0 0 3-3V44h3a3 3 0 0 0 3-3V25a3 3 0 0 0-3-3z"
  stroke-miterlimit="10" stroke-linejoin="round"  stroke-linecap="round"></path>
</symbol>

<symbol viewBox="0 0 64 64" id="home">
  <path data-name="layer2"
  stroke-linecap="round" stroke-miterlimit="10" d="M54 22.6V8h-9v7.445M40 62h14V29.769M10 30v32h14" stroke-linejoin="round"></path>
  <circle data-name="layer2" cx="32" cy="29" r="5"  stroke-linecap="round" stroke-miterlimit="10" stroke-linejoin="round"></circle>
  <path data-name="layer1" stroke-linecap="round"
  stroke-miterlimit="10" d="M24 42h16v20H24zm8-37L2.436 28.651a.5.5 0 0 0-.036.749l3.287 3.287a.5.5 0 0 0 .668.035L32 12l25.65 20.718a.5.5 0 0 0 .668-.035l3.287-3.283a.5.5 0 0 0-.041-.744z"
  stroke-linejoin="round"></path>
</symbol>

<symbol viewBox="0 0 64 64" id="left">
  <path data-name="layer1" stroke-miterlimit="10" d="M24 32.001L38 46l4-4.485-9.515-9.514L42 22.487 38 18 24 32.001z"
  stroke-linejoin="round" stroke-linecap="round"></path>
</symbol>

<symbol viewBox="0 0 64 64" id="right">
  <path data-name="layer1" stroke-miterlimit="10" d="M40 31.998L26 18l-4 4.486 9.515 9.512L22 41.513 26 46l14-14.002z"
  stroke-linejoin="round" stroke-linecap="round"></path>
</symbol>

<symbol viewBox="0 0 64 64" id="down">
  <path data-name="layer1"
  d="M21 22a2.99 2.99 0 0 1 2.121.879l8.89 8.636 8.868-8.636a3 3 0 0 1 4.242 4.242L32.011 40 18.879 27.121A3 3 0 0 1 21 22z"
  stroke-miterlimit="10" stroke-linejoin="round" stroke-linecap="round"></path>
</symbol>

<symbol viewBox="0 0 64 64" id="up">
 <path data-name="layer1"
  d="M43 40a2.992 2.992 0 0 1-2.121-.879l-8.89-8.635-8.868 8.635a3 3 0 0 1-4.242-4.242L31.989 22l13.132 12.879A3 3 0 0 1 43 40z"
  stroke-miterlimit="10" stroke-linejoin="round" stroke-linecap="round"></path>
</symbol>

<symbol viewBox="0 0 64 64" id="search">
  <path data-name="layer2" d="M41.54 37.285L61.122 56.88a3 3 0 0 1-4.244 4.242l-19.58-19.593" stroke-miterlimit="10" stroke-linejoin="round" stroke-linecap="round"></path>
  <circle data-name="layer1" cx="24" cy="24" r="22" stroke-miterlimit="10" stroke-linejoin="round" stroke-linecap="round"></circle>
  <circle data-name="layer1" cx="24" cy="24" r="16" stroke-miterlimit="10" stroke-linejoin="round" stroke-linecap="round"></circle>
</symbol>

<symbol viewBox="0 0 64 64" id="comic">
  <path data-name="layer2" d="M24 51.9a8 8 0 0 1 8 8v-44a8 8 0 0 0-8-8H2v44zm8-36a8 8 0 0 1 8-8h22v44H40a8 8 0 0 0-8 8" stroke-miterlimit="10" stroke-linejoin="round"
  stroke-linecap="round"></path>
  <path data-name="layer1" stroke-miterlimit="10" d="M10 17.9h14m-14 8h14m-14 8h14m-14 8h14m16-24h14m-14 8h14m-14 8h14m-14 8h14"
  stroke-linejoin="round" stroke-linecap="round"></path>
</symbol>

<symbol viewBox="0 0 64 64" id="calendar">
  <circle data-name="layer2" cx="8" cy="12" r="1" stroke-linecap="round" stroke-linejoin="round"></circle>
  <circle data-name="layer2" cx="15" cy="12" r="1" stroke-linecap="round" stroke-linejoin="round"></circle>
  <circle data-name="layer2" cx="22" cy="12" r="1" stroke-linecap="round" stroke-linejoin="round"></circle>
  <path data-name="layer2" stroke-linecap="round" stroke-linejoin="round" d="M2 6h52v12H2zm52 22V18M2 18v32h30"></path>
  <circle data-name="layer1" cx="46" cy="42" r="16" stroke-linecap="round" stroke-linejoin="round"></circle>
  <path data-name="layer1" stroke-linecap="round" stroke-linejoin="round" d="M46 34v10h8"></path>
</symbol>

<symbol viewBox="0 0 64 64" id="series">
  <path data-name="layer2" stroke-miterlimit="10" d="M28 58V46m8 12V46M14 58h36M2 6h60v40H2z" stroke-linejoin="round" stroke-linecap="round"></path>
  <path data-name="layer1" stroke-miterlimit="10" d="M6 10h52v31.99H6z" stroke-linejoin="round" stroke-linecap="round"></path>
</symbol>

<symbol viewBox="0 0 2000 2000" id="no-data">
  <defs>
    <clipPath id="a">
      <circle cx="717.831" cy="803.447" r="59.007" fill="none"/>
    </clipPath>
  </defs>
  <g>
    <g>
      <path d="M1558.025,860.873q0,8.129-.243,16.2-.18,6.456-.521,12.876a549.624,549.624,0,0,1-16.21,107.131,542.639,542.639,0,0,1-21.824,67.278,548.473,548.473,0,0,1-58.064,108.611q-5.4,7.893-11.105,15.567a553.462,553.462,0,0,1-55.712,64.247q-10.64,10.53-21.824,20.454a551.552,551.552,0,0,1-145.493,92.994q-10.785,4.711-21.824,8.948a547.229,547.229,0,0,1-141.855,33.9q-10.857,1.11-21.824,1.782-17.149,1.054-34.554,1.067a551.6,551.6,0,0,1-136.4-17.023q-11-2.781-21.824-6.037a548.068,548.068,0,0,1-141.855-65.739q-11.112-7.219-21.824-14.961a554.012,554.012,0,0,1-78.53-68.721q-6.492-6.856-12.743-13.943a552.841,552.841,0,0,1-50.582-66.867q-11.6-18.041-21.824-37.027a548.063,548.063,0,0,1-65.326-248.356c-.1-4.111-.146-8.245-.146-12.379v-.11a548.6,548.6,0,0,1,56.754-243.712q2.364-4.82,4.838-9.566,1.909-3.692,3.88-7.347,10.2-18.969,21.824-37.028A553.626,553.626,0,0,1,682.341,415.568c.909-.667,1.819-1.334,2.728-1.988,2.267-1.637,4.547-3.262,6.838-4.85q7.4-5.184,14.986-10.112A548.032,548.032,0,0,1,848.748,332.88q10.821-3.256,21.824-6.038a551.646,551.646,0,0,1,136.4-17.023q17.4,0,34.554,1.067,10.966.673,21.824,1.782a547.229,547.229,0,0,1,141.855,33.9q11.022,4.237,21.824,8.948a549.534,549.534,0,0,1,103.882,59.543q4.692,3.382,9.287,6.9,16.677,12.657,32.324,26.552,11.184,9.93,21.824,20.454A551.991,551.991,0,0,1,1481.7,580.945q2.856,4.819,5.59,9.687a546.96,546.96,0,0,1,53.759,134.035A551.855,551.855,0,0,1,1558.025,860.873Z" fill="#ebedfc"/>
      <path d="M1340.2,421.958a772.989,772.989,0,0,1-111.047,49.322c-74.456,26.176-150.064,39.343-224.035,39.343a596.509,596.509,0,0,1-157.811-20.951,594.868,594.868,0,0,1-164.964-74.1c.909-.667,1.819-1.334,2.728-1.988,2.267-1.637,4.547-3.262,6.838-4.85a582.913,582.913,0,0,0,158.284,70.418c156.8,42.969,326.668,18.248,480.72-64.089Q1335.6,418.442,1340.2,421.958Z" fill="#fff"/>
      <path d="M1487.292,590.632q-32.446,19.46-66.321,36.507c-112.2,56.5-231.333,90.872-354.093,102.16q-44.139,4.054-88.435,4.061a970.786,970.786,0,0,1-185.407-17.895,1033.016,1033.016,0,0,1-220.251-69.582q-30.444-13.476-60.113-28.832,2.364-4.82,4.838-9.566c133.465,69.351,321.854,131.78,548.374,110.95,172.833-15.895,313.852-76.541,415.818-137.49Q1484.558,585.765,1487.292,590.632Z" fill="#fff"/>
      <path d="M1557.782,877.071q-.18,6.456-.521,12.876-37.809,18.477-76.529,34.4c-149.845,61.58-303.995,92.606-459.454,92.606q-47.92,0-95.989-3.941c-191.274-15.664-350.067-75.886-469.225-139.757-.1-4.111-.146-8.245-.146-12.379v-.11c118.662,64.369,277.891,125.621,470.269,141.383C1184.654,1023.315,1402.918,953.406,1557.782,877.071Z" fill="#fff"/>
      <path d="M1461.163,1172.967q-5.4,7.893-11.105,15.567a1535.394,1535.394,0,0,1-448.93,86.387q-30.735,1.236-61.484,1.236a1531.873,1531.873,0,0,1-333.1-36.712q-6.492-6.856-12.743-13.943a1517.9,1517.9,0,0,0,345.267,39.755q30.444,0,61.628-1.248A1525.389,1525.389,0,0,0,1461.163,1172.967Z" fill="#fff"/>
    </g>
    <rect x="194.031" y="533.514" width="883.868" height="632.893" rx="14.549" fill="#fff"/>
    <path d="M636.2,995.161q-10.322,0-17.12-6.582a22.053,22.053,0,0,1-6.8-16.563q0-17.7,9.381-38.8t29.082-37.438q13.123-10.893,24.156-21.557a87.559,87.559,0,0,0,17.823-24.5q6.795-13.836,6.8-33.807a55.784,55.784,0,0,0-26.973-47.876q-12.906-7.935-31.66-7.942-22.989,0-37.993,8.169a51.9,51.9,0,0,0-22.282,22.69q-7.276,14.528-7.27,34.034a22.479,22.479,0,0,1-6.567,16.563q-6.576,6.585-17.356,6.58-10.322,0-17.12-6.58a22.058,22.058,0,0,1-6.8-16.563q0-31.76,14.31-55.816t40.337-37.891q26.035-13.839,60.745-13.842,30.485,0,54.178,12.48a96.75,96.75,0,0,1,37.524,34.488q13.828,22.015,13.836,51.506,0,25.419-8.442,44.018A114.741,114.741,0,0,1,715,893.283a332.828,332.828,0,0,1-33.305,29.27,48.867,48.867,0,0,0-16.887,24.731q-4.692,15.212-4.689,24.732a22.478,22.478,0,0,1-6.567,16.563Q646.98,995.162,636.2,995.161Zm0,83.951a31.6,31.6,0,0,1-22.748-9.3q-9.622-9.294-9.618-22.008a30.11,30.11,0,0,1,9.618-22.463,31.625,31.625,0,0,1,22.748-9.3,32.212,32.212,0,0,1,23.221,9.3,30.142,30.142,0,0,1,9.614,22.463q0,12.709-9.614,22.008A32.184,32.184,0,0,1,636.2,1079.112Z" fill="#494e6d"/>
    <path d="M292.239,1679.269c35.257-43.476,92.427-99.279,174.591-120.031,111.471-28.155,161.254,35.406,294.623,21.823,141.123-14.372,139.252-91.025,261.886-98.207,147.08-8.614,162.795,100.881,338.271,109.119,124.231,5.833,172.417-46.416,272.8-10.912,67.8,23.98,113.509,71.757,141.855,109.12Z" fill="#ebedfc"/>
    <path d="M1077.9,548.063v84.265H194.031V548.063a14.592,14.592,0,0,1,14.549-14.549h854.77A14.592,14.592,0,0,1,1077.9,548.063Z" fill="#ffaa40"/>
    <path d="M1063.35,1169.438H208.58a17.6,17.6,0,0,1-17.58-17.58V548.063a17.6,17.6,0,0,1,17.58-17.58h854.77a17.6,17.6,0,0,1,17.58,17.58v603.795A17.6,17.6,0,0,1,1063.35,1169.438ZM208.58,536.545a11.531,11.531,0,0,0-11.518,11.518v603.795a11.531,11.531,0,0,0,11.518,11.518h854.77a11.531,11.531,0,0,0,11.518-11.518V548.063a11.531,11.531,0,0,0-11.518-11.518Z" fill="#ebedfc"/>
    <path d="M1809,1684.725a5.463,5.463,0,0,1-5.456,5.456H243.135a5.456,5.456,0,0,1,0-10.912H1803.544A5.464,5.464,0,0,1,1809,1684.725Z" fill="#5f6386"/>
    <path d="M1561.4,843.9a55.543,55.543,0,0,1-1.577,14.028l-121.7-6.365.085-.182,17.022-33.936A56.509,56.509,0,0,1,1561.4,843.9Z" fill="#68a3c1"/>
    <path d="M264.656,607.17a19.1,19.1,0,1,1,19.1-19.1A19.118,19.118,0,0,1,264.656,607.17Zm0-32.13a13.034,13.034,0,1,0,13.033,13.034A13.049,13.049,0,0,0,264.656,575.04Z" fill="#251138"/>
    <path d="M342.252,607.17a19.1,19.1,0,1,1,19.1-19.1A19.118,19.118,0,0,1,342.252,607.17Zm0-32.13a13.034,13.034,0,1,0,13.034,13.034A13.049,13.049,0,0,0,342.252,575.04Z" fill="#251138"/>
    <path d="M418.635,607.17a19.1,19.1,0,1,1,19.1-19.1A19.118,19.118,0,0,1,418.635,607.17Zm0-32.13a13.034,13.034,0,1,0,13.034,13.034A13.048,13.048,0,0,0,418.635,575.04Z" fill="#251138"/>
    <g>
      <g>
        <g>
          <path d="M1172.586,1485.278h0a65.027,65.027,0,0,1-62.944-63.442c-3.35-146.058-2.07-295.524,4.884-404.957l142.3,4.6c-8.527,124.636-14.321,269.8-17.091,400.152A65.057,65.057,0,0,1,1172.586,1485.278Z" fill="#494e6d"/>
          <path d="M1239.3,1425.976c-.013.753-.027,1.506-.053,2.272-1.413,69.4-4.639,164.955-6.656,249.833-.108,4.06-.188,8.093-.282,12.1H1116.939c-.121-3.993-.228-8.027-.35-12.1-2.325-81.866-4.853-176.962-6.9-251.621-.027-1.062-.027-2.111,0-3.16a64.818,64.818,0,0,1,129.609,2.676Z" fill="#494e6d"/>
          <path d="M1404.308,1447.52h0a65.027,65.027,0,0,1-75.179-48.321c-34.871-141.874-65.96-288.076-82.847-396.422l139.92-26.3c18.641,123.528,44.391,266.506,69.889,394.371A65.057,65.057,0,0,1,1404.308,1447.52Z" fill="#494e6d"/>
          <path d="M1556.089,1690.181H1435.73c-1.519-3.98-3.065-8.027-4.638-12.1-30.95-80.683-68.6-179.53-97.663-255.628a64.721,64.721,0,0,1,41.087-84.931v-.013a64.809,64.809,0,0,1,81.046,41.571c.592,1.8,1.2,3.63,1.788,5.472v.014c27.078,82.645,64.522,203.017,94.692,293.515C1553.4,1682.181,1554.758,1686.215,1556.089,1690.181Z" fill="#494e6d"/>
          <polygon points="1181.754 1164.254 1304.853 1162.637 1269.712 1038.455 1211.317 1028.18 1181.754 1164.254" fill="#494e6d"/>
          <polygon points="1259.026 1106.435 1224.34 1102.414 1236.884 1021.866 1239.28 1022.239 1227.125 1100.296 1259.306 1104.026 1259.026 1106.435" fill="#251138"/>
          <polygon points="1110.556 1142.355 1109.007 1140.489 1124.711 1127.464 1133.77 1017.306 1136.187 1017.505 1127.043 1128.679 1110.556 1142.355" fill="#251138"/>
          <polygon points="1413.939 1150.535 1390.259 1142.106 1365.882 1026.002 1368.255 1025.503 1392.352 1140.278 1414.751 1148.251 1413.939 1150.535" fill="#251138"/>
        </g>
        <path d="M777.3,934.938c-.571-12.5,21.438-19.8,40.509-24.133-8.161-6.845-14.442-15.515-12.33-19.947,3.035-6.37,22.247-1.561,34.556,4.3a46.406,46.406,0,0,1,6.29,3.618A29.187,29.187,0,0,1,867.577,948.5a29.416,29.416,0,0,1-4.213,3.506,44.375,44.375,0,0,1-22.534,11.206C820.729,967,778.592,963.317,777.3,934.938Z" fill="#eb8f90"/>
        <path d="M1121.39,959.383a53.255,53.255,0,0,1-8.33.752l-42.435-.036-187.322-.17-28.214-.024-9.966-62.017,27.049-5.237,196.61-38.168,1.843-.352,9.287-1.794,4.753-.921,18.611-3.626a58.909,58.909,0,0,1,9.056-.715,56.526,56.526,0,0,1,9.058,112.308Z" fill="#68a3c1"/>
        <path d="M1113.33,958.418l.344.069a49.6,49.6,0,0,0,7.717.895,52.8,52.8,0,0,0,52.228-35.45l64.768-186.208a67.313,67.313,0,1,0-129.674-34.864l-27.113,140.7-1.688,8.785-2.2,11.438-6.3,32.694A52.9,52.9,0,0,0,1113.33,958.418Z" fill="#68a3c1"/>
        <path d="M1113.941,1016.02c46.1,79.72,158.922,3.066,277.779,0V655.834c-57.4-43.408-167.6-43.856-247.945,0Z" fill="#68a3c1"/>
        <ellipse cx="1319.79" cy="499.339" rx="13.944" ry="4.693" transform="translate(-53.93 176.728) rotate(-7.508)" fill="#8e3332"/>
        <ellipse cx="1319.79" cy="499.339" rx="13.944" ry="3.212" transform="translate(434.904 1598.503) rotate(-71.888)" fill="#8e3332"/>
        <path d="M1227.108,636.056c1.044,17.388,6.892,37.387,28.457,36.342,37.8-1.827,46.941-41.563,46.941-41.563s-3.08-56.862-3.968-57.437h-70.229v37.856A122.555,122.555,0,0,0,1227.108,636.056Z" fill="#fb855f"/>
        <path d="M1227.108,636.056c54.356-11.278,62.084-39.944,62.084-39.944L1234.574,573.4h-6.265v37.856A122.555,122.555,0,0,0,1227.108,636.056Z" fill="#e56542"/>
        <path d="M1308.84,552.791s-16.3,79.655-77.065,63.346a40.432,40.432,0,0,1-18.249-10.528,37.294,37.294,0,0,1-9.505-16.311c-6.114-22.088-5.03-58.152,1.551-105.251l103.268,8.782Z" fill="#fb855f"/>
        <path d="M1312.691,558.788c-.2,0-12.107-12.968-22.514,4.5,0,0,18.365-8.65,22.31-4.5Z" fill="#f35757"/>
        <path d="M1284.463,524.108c-48.274,8.464-88.014-3.567-98.417-32.668a17.547,17.547,0,0,1,16.978-23.391c22.187.6,59.79,8.661,96.42,15.157a30.587,30.587,0,0,1,7.89,2.52c21.4,10.278,27.423,29.838,22.567,55.957-8.216,38.815-20.866,45.793-34.507,45.652C1296.251,564.187,1278.571,545.952,1284.463,524.108Z" fill="#8e3332"/>
        <ellipse cx="1301.673" cy="563.289" rx="16.151" ry="20.795" fill="#fb855f"/>
        <path d="M1312.691,560.08c.218.112-11.359-12.243-20.066,1.633C1292.625,561.713,1305.277,556.271,1312.691,560.08Z" fill="#e56542"/>
        <path d="M1318.761,767.076l112.449,84.1,5.167,3.858,5.271,3.962,35.037,26.183a52.844,52.844,0,0,0,74-10.68l.207-.276a52.915,52.915,0,0,0-4.927-69.04L1406.715,665.653a67.3,67.3,0,1,0-87.954,101.423Z" fill="#68a3c1"/>
        <path d="M1325.266,1128.848c-10.247-7.175-2.6-29.064,5.61-46.817-10.4,2.286-21.1,1.969-23.326-2.409-3.193-6.292,12.342-18.574,24.5-24.745a46.372,46.372,0,0,1,6.705-2.774,29.165,29.165,0,0,1,52.567,18.991,44.381,44.381,0,0,1-4.878,24.689C1377.173,1114.014,1348.537,1145.144,1325.266,1128.848Z" fill="#eb8f90"/>
        <path d="M1561.4,843.9a55.543,55.543,0,0,1-1.577,14.028,56.232,56.232,0,0,1-9.65,20.357l-139.528,180.7-18.126,23.485-55.191-29.971,15.023-29.972,80.821-161.085,3.213-6.413,1.734-3.468.085-.182,17.022-33.936A56.509,56.509,0,0,1,1561.4,843.9Z" fill="#68a3c1"/>
        <path d="M1257.186,672.443c-.338,0-.672,0-1.016-.01-10.663-.2-18.914-5.483-24.522-15.706-5.225-9.524-6.893-21.044-7.373-29.03l2.42-.146c2.276,37.867,21.4,42.306,29.52,42.457.321.006.642.009.959.009,39.07,0,47.945-44.936,48.03-45.394l2.385.446C1307.5,625.546,1298.264,672.443,1257.186,672.443Z" fill="#251138"/>
        <rect x="1064.979" y="854.555" width="369.325" height="2.424" transform="translate(349.861 2074.1) rotate(-87.957)" fill="#251138"/>
        <circle cx="1242.14" cy="715.486" r="3.969"/>
        <circle cx="1239.121" cy="772.761" r="3.969"/>
        <circle cx="1236.101" cy="830.036" r="3.969"/>
        <circle cx="1233.082" cy="887.311" r="3.969"/>
        <circle cx="1230.062" cy="944.586" r="3.969"/>
        <circle cx="1227.042" cy="1001.861" r="3.969" fill="#001065"/>
        <polygon points="845.119 897.887 855.075 959.899 883.291 959.933 872.163 892.651 845.119 897.887" fill="#68a3c1"/>
        <path d="M1337.321,1052.5l55.191,29.972,18.121-23.5c-14.469-9.3-55.845-35.726-58.291-36.449Z" fill="#68a3c1"/>
        <rect x="1382.846" y="794.399" width="2.425" height="36.078" transform="translate(-169.1 1216.634) rotate(-45)" fill="#251138"/>
        <rect x="1435.08" y="849.492" width="25.511" height="2.425" fill="#251138"/>
      </g>
      <g>
        <rect x="761.119" y="855.52" width="19.853" height="23.892" transform="translate(1907.049 1105.175) rotate(143.451)" fill="#6b2eca"/>
        <path d="M737.283,727.031A78.858,78.858,0,1,0,760.422,869.8a78.548,78.548,0,0,0,33.827-46.9A78.851,78.851,0,0,0,737.283,727.031Zm37.727,90.981A59.006,59.006,0,1,1,732.4,746.27,59.015,59.015,0,0,1,775.01,818.012Z" fill="#ffaa40"/>
        <rect x="791.117" y="856.377" width="28.264" height="115.018" rx="5.53" transform="translate(1996.372 1168.518) rotate(143.451)" fill="#494e6d"/>
        <g opacity="0.33">
          <g clip-path="url(#a)">
            <g>
              <rect x="701.402" y="749.749" width="21.92" height="163.331" transform="translate(1551.172 127.776) rotate(90.599)" fill="#fff"/>
              <rect x="716.046" y="720.866" width="2.631" height="163.331" transform="translate(1527.343 93.592) rotate(90.599)" fill="#fff"/>
            </g>
          </g>
        </g>
      </g>
      <rect x="1089.471" y="845.421" width="2.425" height="36.078" transform="translate(-291.105 1024.131) rotate(-45)" fill="#251138"/>
      <rect x="1363.419" y="964.291" width="28.522" height="2.425" transform="translate(-102.01 1765.952) rotate(-63.435)" fill="#251138"/>
      <rect x="1114.982" y="924.403" width="2.425" height="38.266" fill="#251138"/>
    </g>
    <path d="M656,1679.269H627.854c-23.824-29.638-39.9-51.765-50.286-68.2-16.671-26.4-18.677-38.119-14.555-42.671,7.487-8.257,36.834,5.261,53.972,18.768,19.023,15,28.85,34.585,33.881,51.923A130.717,130.717,0,0,1,656,1679.269Z" fill="#5f6386"/>
    <path d="M642.692,1681.694a2.424,2.424,0,0,1-2.38-1.975,148.539,148.539,0,0,0-26.706-61.123,145.8,145.8,0,0,0-31.39-30.81,2.425,2.425,0,0,1,2.84-3.931,150.681,150.681,0,0,1,32.434,31.836,153.391,153.391,0,0,1,27.586,63.128,2.423,2.423,0,0,1-1.932,2.832A2.328,2.328,0,0,1,642.692,1681.694Z" fill="#30354f"/>
    <path d="M681.317,1679.608c53.382-154.364,53.641-199.4,39.809-206.672-14.956-7.867-49.719,26.659-67.1,54.813-41.281,66.872-11.655,141.8-7.561,151.681Z" fill="#9fa3bf"/>
    <path d="M665.836,1677.7a2.425,2.425,0,0,1-2.385-2A231.215,231.215,0,0,1,669.346,1569a226.9,226.9,0,0,1,29.462-61.871,2.425,2.425,0,1,1,4.017,2.719,222.017,222.017,0,0,0-28.835,60.55,226.344,226.344,0,0,0-5.765,104.455,2.423,2.423,0,0,1-1.961,2.813A2.316,2.316,0,0,1,665.836,1677.7Z" fill="#30354f"/>
    <path d="M1635.986,1679.269h-41.421c-35.067-43.624-58.721-76.193-74.015-100.383-24.538-38.859-27.492-56.107-21.424-62.808,11.02-12.153,54.216,7.745,79.441,27.625,28,22.075,42.464,50.9,49.87,76.425A192.422,192.422,0,0,1,1635.986,1679.269Z" fill="#5f6386"/>
    <path d="M1616.406,1681.694a2.424,2.424,0,0,1-2.38-1.975,219.791,219.791,0,0,0-39.516-90.439,215.773,215.773,0,0,0-46.449-45.592,2.425,2.425,0,1,1,2.842-3.931,220.664,220.664,0,0,1,47.491,46.617,224.628,224.628,0,0,1,40.4,92.445,2.423,2.423,0,0,1-1.932,2.832A2.328,2.328,0,0,1,1616.406,1681.694Z" fill="#30354f"/>
    <path d="M1673.257,1679.768c78.573-227.208,78.954-293.492,58.6-304.2-22.014-11.578-73.181,39.24-98.762,80.679-60.76,98.428-17.154,208.711-11.128,223.259Z" fill="#9fa3bf"/>
    <path d="M1650.472,1675.818a2.424,2.424,0,0,1-2.384-2c-9.363-52.475-6.374-106.6,8.646-156.528a332.783,332.783,0,0,1,43.216-90.756,2.425,2.425,0,0,1,4.017,2.718,328.016,328.016,0,0,0-42.59,89.435c-14.8,49.2-17.745,102.551-8.515,154.278a2.426,2.426,0,0,1-2.39,2.852Z" fill="#30354f"/>
    <path d="M1529.712,1231.524H1566c18.255,0,29.664,19.118,20.537,34.413l-18.145,30.405-18.146,30.4c-9.127,15.295-31.946,15.295-41.073,0l-18.145-30.4-18.146-30.405c-9.127-15.295,2.282-34.413,20.537-34.413Z" fill="#ebedfc"/>
    <path d="M1414.942,421.286a21.415,21.415,0,0,1-17.118-8.391,20.213,20.213,0,0,1-2.713-20.318l22.181-53.319a21.21,21.21,0,0,1,16.781-12.834,21.6,21.6,0,0,1,20.082,7.75l36.637,45.243a20.215,20.215,0,0,1,3.169,20.386A21.142,21.142,0,0,1,1476.888,413l-58.818,8.074A23.009,23.009,0,0,1,1414.942,421.286Zm22.38-90.889a18.393,18.393,0,0,0-2.647.191,17.042,17.042,0,0,0-13.5,10.287l-22.181,53.318a16.058,16.058,0,0,0,2.163,16.134A17.376,17.376,0,0,0,1417.5,416.9l58.818-8.074a16.985,16.985,0,0,0,13.733-10.575,16.056,16.056,0,0,0-2.528-16.19l-36.637-45.244A17.32,17.32,0,0,0,1437.322,330.4Z" fill="#ebedfc"/>
    <path d="M1695.812,786.337l14.155,22.511c7.12,11.323-1.1,25.857-14.8,26.161l-27.228.6-27.228.6c-13.7.3-22.6-13.851-16.021-25.478l13.074-23.115,13.073-23.114c6.577-11.628,23.7-12.007,30.817-.684Z" fill="#fff0e3"/>
    <path d="M543.826,330.955,565.892,346.4a16.955,16.955,0,0,1-3.161,29.665l-24.859,10.765-24.858,10.765c-12.5,5.415-26.379-4.3-24.974-17.48l2.792-26.21,2.793-26.21c1.4-13.184,17.035-19.953,28.135-12.184Z" fill="#ebedfc"/>
    <path d="M588.074,1326.094V1361.2c0,17.661-19.762,28.7-35.571,19.868l-31.428-17.554-31.429-17.555a22.574,22.574,0,0,1,0-39.736l31.429-17.555,31.428-17.554c15.809-8.831,35.571,2.207,35.571,19.868Z" fill="#fff0e3"/>
  </g>
</symbol>

<symbol viewBox="0 0 2000 2000" id="404">
  <defs>
    <clipPath id="a">
      <circle cx="1400.702" cy="924.874" r="84.698" fill="none"/>
    </clipPath>
  </defs>
  <g>
    <g>
      <path d="M1718.284,1348.423c-11.145,68.852-73.183,120.687-145.829,115.986L1363.812,1450.9h-.036l-382.6-24.772c-.012-.012-.012-.012-.024-.012l-509.68-32.994h-.024l-12.827-.835A138.656,138.656,0,0,1,328.94,1252.21l.954-77.312,2.435-196.745,3.138-254.87.441-35.548A138.648,138.648,0,0,1,455.951,552.049l320.643-43.4,481.71-65.188.012-.012,268.329-36.311c80.653-10.919,153.323,49.675,157.094,130.985l2.327,50.26,11.515,248.605,11.932,257.829,10.406,224.812A139.282,139.282,0,0,1,1718.284,1348.423Z" fill="#fff0e3"/>
      <path d="M962.413,765.219c-96.425,0-161.22-24.257-224.131-47.807-68.116-25.5-132.457-49.583-231.1-39.365-57.413,5.946-114.556,22.471-169.843,49.116L333.6,719.4c56.187-27.079,114.291-43.877,172.7-49.925,100.658-10.424,165.92,14,235.009,39.865,70.105,26.243,142.6,53.376,259.176,46.036,108.576-6.838,173.468-38.986,242.171-73.021,68.721-34.044,139.782-69.248,262.2-88.029a960.786,960.786,0,0,1,181.38-10.249l-.325,8.61a952.062,952.062,0,0,0-179.749,10.156c-121.1,18.578-191.548,53.48-259.681,87.233-69.5,34.431-135.147,66.952-245.454,73.9Q980.889,765.245,962.413,765.219Z" fill="#fff"/>
      <path d="M941.8,539.657c-73.107,0-126.731-14-166.537-26.909l2.659-8.2c45.636,14.8,109.73,31.057,201.076,25.3,108.544-6.839,173.421-38.969,242.107-72.986,11.43-5.661,23.249-11.514,35.341-17.29l1.846,3.865,3.069,3.057-.522.522-.679.331c-12.037,5.749-23.828,11.589-35.232,17.237C1155.445,499,1089.814,531.5,979.54,538.45,966.417,539.277,953.842,539.657,941.8,539.657Z" fill="#fff"/>
      <path d="M1090.886,1001.486c-110.244,0-184.343-24.227-256.294-47.748-78.12-25.538-151.9-49.661-265.131-39.418-79.881,7.223-159.021,30-235.222,67.694l-3.82-7.723c77.157-38.168,157.322-61.232,238.266-68.553,114.993-10.4,189.6,13.988,268.584,39.81,80.386,26.278,163.506,53.452,297.258,46.1,124.55-6.853,198.946-39.037,277.711-73.111,75.628-32.717,153.829-66.548,284.716-85.806l1.254,8.525c-129.763,19.093-207.434,52.694-282.549,85.188-79.491,34.389-154.574,66.87-280.658,73.807Q1112,1001.512,1090.886,1001.486Z" fill="#fff"/>
      <path d="M886.239,1268.776c-130.984,0-219.061-24.2-304.578-47.687-77.815-21.374-151.314-41.564-251.781-41.882l.028-8.617c101.614.323,175.651,20.66,254.035,42.19,95.788,26.312,194.834,53.514,354.271,46.153,148.486-6.862,237.134-39.088,330.986-73.206,93.488-33.985,190.158-69.127,356.589-87.863,27.533-3.1,55.61-5.573,83.451-7.346l.548,8.6c-27.7,1.764-55.639,4.223-83.035,7.309-165.414,18.622-261.6,53.586-354.609,87.4-94.487,34.349-183.735,66.793-333.533,73.714Q911.3,1268.8,886.239,1268.776Z" fill="#fff"/>
      <path d="M1364.08,1455.209h-.268l-.018-4.453-.515-4.13c101.879-12.7,173.608-38.775,249.551-66.382,32.763-11.911,66.642-24.228,104.171-35.933l2.565,8.224c-37.337,11.648-71.121,23.929-103.792,35.807-76.412,27.778-148.586,54.016-251.43,66.833Z" fill="#fff"/>
      <path d="M981.156,1430.425h-.544l-.526-.134c-18.682-4.789-37.037-9.831-54.788-14.707-93.112-25.575-181.06-49.731-316.1-39.465a890.217,890.217,0,0,0-136.73,21.2l-.489.116h-.5l-.012-4.359-.978-4.142a898.886,898.886,0,0,1,138.058-21.4c136.531-10.379,225.184,13.97,319.038,39.748,17.548,4.82,35.687,9.8,54.118,14.534h1.242l1.285,1.274-3.046,3.046Z" fill="#fff"/>
    </g>
    <g>
      <rect x="967.053" y="528.919" width="427.446" height="598.424" rx="19.892" fill="#494e6d"/>
      <path d="M1181.734,941.819q-11.641,0-19.309-7.423a24.874,24.874,0,0,1-7.669-18.681q0-19.961,10.58-43.758t32.8-42.225q14.8-12.285,27.245-24.312a98.735,98.735,0,0,0,20.1-27.638q7.665-15.6,7.674-38.128a62.922,62.922,0,0,0-30.423-54q-14.556-8.949-35.707-8.957-25.929,0-42.851,9.212a58.551,58.551,0,0,0-25.13,25.591q-8.207,16.386-8.2,38.386,0,11.264-7.407,18.681t-19.575,7.421q-11.641,0-19.309-7.421a24.88,24.88,0,0,1-7.673-18.681q0-35.82,16.138-62.952t45.5-42.736q29.364-15.607,68.511-15.611,34.381,0,61.1,14.075a109.1,109.1,0,0,1,42.321,38.9q15.6,24.829,15.606,58.091,0,28.668-9.521,49.645a129.406,129.406,0,0,1-25.923,37.618,375.658,375.658,0,0,1-37.562,33.011,55.109,55.109,0,0,0-19.046,27.894q-5.292,17.154-5.289,27.893,0,11.266-7.406,18.681T1181.734,941.819Zm0,94.684a35.638,35.638,0,0,1-25.656-10.493q-10.852-10.482-10.847-24.822a33.959,33.959,0,0,1,10.847-25.335,35.669,35.669,0,0,1,25.656-10.492,36.332,36.332,0,0,1,26.19,10.492,34,34,0,0,1,10.843,25.335q0,14.334-10.843,24.822A36.3,36.3,0,0,1,1181.734,1036.5Z" fill="#fff"/>
    </g>
    <g>
      <polygon points="559.956 1370.898 465.064 1714.234 449.487 1714.234 521.265 1362.983 559.956 1370.898" fill="#fdab71"/>
      <polygon points="727.546 1368.007 631.872 1714.234 616.497 1714.234 688.855 1360.105 727.546 1368.007" fill="#e28f59"/>
      <polygon points="889.633 1714.234 875.141 1714.234 803.099 1351.899 842.269 1346.85 889.633 1714.234" fill="#fdab71"/>
      <polygon points="1036.42 1714.234 1021.991 1714.234 945.859 1320.593 985.03 1315.544 1036.42 1714.234" fill="#e28f59"/>
      <polygon points="534.641 1336.387 465.433 1041.847 534.641 1041.847 558.784 1336.387 534.641 1336.387" fill="#fdab71"/>
      <polygon points="648.916 1320.291 594.193 1017.704 648.916 1017.704 673.059 1320.291 648.916 1320.291" fill="#fdab71"/>
      <path d="M432.532,874.226a28.8,28.8,0,0,1,14.284-22.436c48.459-27.576,174.028-32.629,194.955-7.516,23.23,27.875,56.118,183.178,47.621,204.42-11.615,29.037-120.794,66.2-200.935,37.167C420.639,1061.289,428.508,917.781,432.532,874.226Z" fill="#eeedff"/>
      <path d="M454.348,847.962c30.508-1.952,104.959,216.992,34.109,237.9C423.766,1104.95,411.364,956.524,415,882.829a35.013,35.013,0,0,1,22.279-31A58.309,58.309,0,0,1,454.348,847.962Z" fill="#b0b0d6"/>
      <path d="M796.331,1288.207s78.485.709,144.024-23.8c24.394-9.122,51.479,6.951,53.743,32.9.881,10.091-2.059,21.184-12.014,32.467C947.24,1369.261,788.336,1390,788.336,1390Z" fill="#eeedff"/>
      <path d="M502.394,1306.541s128.742,8.277,279.853-17.719c57.834-9.949,82.285,72.038,28.093,94.554q-1.215.505-2.478.984c-67.365,25.553-267.139,13.938-305.468-11.615S480.406,1305.667,502.394,1306.541Z" fill="#b0b0d6"/>
    </g>
    <g>
      <path d="M559.882,1569.994c2.873,12.928-8.618,24.419-26.573,37.347s5.746,24.418,15.082,46.682c6.075,14.484-11.98,44.2-25.336,63.2H500.133c-.12,1.167-.24,2.264-.349,3.272-.589-1.067-1.158-2.165-1.7-3.272a94.121,94.121,0,0,1-3.87-9.137,132.469,132.469,0,0,1-6-23.311c-3.96-23.431-2.614-46.713-.429-56.887a19.163,19.163,0,0,1,1.356-4.389c4.669-8.978-9.695-16.159-11.85-27.651s12.928-19.391,7.182-42.373-11.481-109.225,48.837-104.856c49.556,3.591,22.264,65.355,15.082,83.31S557.01,1557.067,559.882,1569.994Z" fill="#9fa3bf"/>
      <path d="M500.133,1717.224c-.12,1.167-.24,2.264-.349,3.272-.589-1.067-1.158-2.165-1.7-3.272H469.151c-6.833-15.052-20.838-41.655-38.184-51.71-24.778-14.364-21.9-42.373-21.9-59.61s-28.01-23.7-54.583-38.782-36.309-81.964-9.336-88.338c39.5-9.337,70.383,43.81,82.592,61.046s34.473,6.464,35.191,26.573c.639,17.816,11.422,40.149,24.858,61.486q2.6,4.13,5.306,8.179C504.99,1653.923,502.227,1697.025,500.133,1717.224Z" fill="#5f6386"/>
      <path d="M534.177,1513.766c-.1.159-9.915,17.247-17.516,54.064-6.234,30.2-12.05,79.55-7.032,149.394h-2c-5.018-70.074.848-119.609,7.122-149.943,7.661-37.076,17.606-54.353,17.705-54.523a1,1,0,1,1,1.726,1.008Z" fill="#fff"/>
      <path d="M496.113,1717.224h-2.025c-7.152-37.136-22.843-80.507-43.531-119.11-28.039-52.339-60.019-86.842-87.729-94.672a.994.994,0,0,1-.688-1.227,1,1,0,0,1,1.237-.688c28.219,7.97,60.637,42.832,88.946,95.649a465.171,465.171,0,0,1,35.89,87.6c2.3,7.93,4.319,15.72,6,23.311C494.9,1711.169,495.534,1714.212,496.113,1717.224Z" fill="#fff"/>
    </g>
    <g>
      <g>
        <g>
          <path d="M881,1677.091l18.37,5.268a11.735,11.735,0,0,0,14.488-7.423l12.643-40.061-40.645-11.656-12.643,40.061A11.01,11.01,0,0,0,881,1677.091Z" fill="#fb855f"/>
          <path d="M1132.521,1620.81h20.036a11.2,11.2,0,0,1,11.2,11.2v44.313a0,0,0,0,1,0,0h-42.444a0,0,0,0,1,0,0v-44.313A11.2,11.2,0,0,1,1132.521,1620.81Z" transform="translate(2705.045 2906.246) rotate(163.555)" fill="#fb855f"/>
          <path d="M1106.976,1288.791h0a58.624,58.624,0,0,0-40.472-69.666c-126.362-37.156-256.775-71.081-353.67-90.681l-29.358,124.949c110.5,21.8,238.224,50.781,352.348,78.928A58.651,58.651,0,0,0,1106.976,1288.791Z" fill="#494e6d"/>
          <path d="M1038.391,1221.45h0a58.426,58.426,0,0,1,73.473,42.86c25.589,110.625,63.218,272.24,78.967,343.363l-95.257,28.117c-19.658-80.527-68.861-242.995-96.891-342.461A58.423,58.423,0,0,1,1038.391,1221.45Z" fill="#494e6d"/>
          <path d="M985.81,1338.61h0a58.632,58.632,0,0,0-32.987-73.525c-121.776-50.163-247.918-97.535-342.227-127.159h0a125.143,125.143,0,0,0,78.879,160.022c73.96,24.467,150.237,50.95,221.007,76.508A58.66,58.66,0,0,0,985.81,1338.61Z" fill="#494e6d"/>
          <path d="M944.1,1258.857h0c33.556,2.284,58.172,31.028,53.778,62.822-14.83,107.31-36.264,264.163-46.456,332.921l-99.068-6.742c9.829-78.459,20.723-239.943,29.353-338.107C884.382,1279.362,912.194,1256.686,944.1,1258.857Z" fill="#494e6d"/>
          <polygon points="780.906 1271.3 669.928 1269.842 668.04 1126.617 754.254 1148.623 780.906 1271.3" fill="#494e6d"/>
          <polygon points="1190.831 1607.673 1184.895 1576.175 1089.571 1600.371 1095.574 1635.79 1190.831 1607.673" fill="#251138"/>
          <polygon points="956.508 1618.212 951.426 1654.6 852.358 1647.858 857.781 1611.34 956.508 1618.212" fill="#251138"/>
          <path d="M1163.086,1648.611l102.548-9.246a13.994,13.994,0,0,1,14.677,9.975h0a13.993,13.993,0,0,1-9.459,17.381l-137.688,40.642-10.642-46.247Z" fill="#251138"/>
          <path d="M915.357,1665.141l90.882,46.135a13.1,13.1,0,0,1,6.822,15.615h0c-2.227,7.054-10.03,11.052-17.43,8.93L858.156,1696.4l16.41-42.446Z" fill="#251138"/>
        </g>
        <path d="M1157.65,1076.362c.515-11.266-19.326-17.847-36.52-21.757,7.358-6.17,13.02-13.987,11.116-17.982-2.736-5.743-20.056-1.408-31.154,3.88a41.9,41.9,0,0,0-5.67,3.261,26.293,26.293,0,0,0-15.365,47.989,39.994,39.994,0,0,0,20.314,10.1C1118.493,1105.267,1156.481,1101.947,1157.65,1076.362Z" fill="#fb855f"/>
        <path d="M1096.5,1042.96l-8.976,55.906-25.437.031-207.132.186a49.328,49.328,0,0,1-7.517-.683A50.961,50.961,0,0,1,855.6,997.148a51.987,51.987,0,0,1,8.168.652l16.772,3.261,4.286.839,10.032,1.925,177.253,34.414Z" fill="#ffaa40"/>
        <path d="M854.7,1097.53l-.311.062a44.613,44.613,0,0,1-6.957.808,47.6,47.6,0,0,1-47.085-31.96L741.959,898.567a60.685,60.685,0,1,1,116.906-31.432L883.308,993.98l1.522,7.92,1.988,10.311,5.684,29.475A47.693,47.693,0,0,1,854.7,1097.53Z" fill="#ffaa40"/>
        <path d="M854.152,1149.461c-41.557,71.87-143.275,2.764-250.428,0V824.74c51.744-39.135,151.1-39.538,223.531,0Z" fill="#ffaa40"/>
        <ellipse cx="668.571" cy="683.653" rx="4.231" ry="12.571" transform="matrix(0.131, -0.991, 0.991, 0.131, -96.579, 1257.165)" fill="#8e3332"/>
        <ellipse cx="668.571" cy="683.653" rx="2.896" ry="12.571" transform="translate(-179.403 241.716) rotate(-18.112)" fill="#8e3332"/>
        <path d="M752.128,806.909c-.942,15.676-6.214,33.706-25.655,32.764-34.082-1.647-42.32-37.471-42.32-37.471s2.777-51.263,3.578-51.781h63.314v34.128A110.473,110.473,0,0,1,752.128,806.909Z" fill="#fb855f"/>
        <path d="M752.128,806.909c-49-10.167-55.971-36.011-55.971-36.011L745.4,750.421h5.649v34.128A110.473,110.473,0,0,1,752.128,806.909Z" fill="#e56542"/>
        <path d="M678.443,731.842s14.7,71.812,69.477,57.109a36.443,36.443,0,0,0,16.452-9.491,33.619,33.619,0,0,0,8.569-14.705c5.513-19.913,4.535-52.426-1.4-94.888l-93.1,7.918Z" fill="#fb855f"/>
        <path d="M700.42,705.984c43.521,7.631,79.348-3.216,88.727-29.451a15.821,15.821,0,0,0-15.307-21.089c-20,.538-53.9,7.809-86.926,13.665a27.564,27.564,0,0,0-7.113,2.272c-19.3,9.266-24.723,26.9-20.345,50.447,7.407,34.994,18.811,41.285,31.11,41.157C689.793,742.117,705.732,725.677,700.42,705.984Z" fill="#8e3332"/>
        <ellipse cx="684.905" cy="741.307" rx="14.561" ry="18.747" fill="#fb855f"/>
        <path d="M674.971,738.414c-.2.1,10.241-11.038,18.09,1.472C693.061,739.886,681.655,734.98,674.971,738.414Z" fill="#e56542"/>
        <path d="M669.5,925.029l-101.377,75.815-4.658,3.478-4.752,3.572L527.125,1031.5a47.641,47.641,0,0,1-66.715-9.628l-.186-.249a47.7,47.7,0,0,1,4.441-62.242l125.54-125.789A60.672,60.672,0,1,1,669.5,925.029Z" fill="#ffaa40"/>
        <path d="M663.635,1251.179c9.237-6.468,2.34-26.2-5.058-42.207,9.378,2.061,19.026,1.775,21.029-2.172,2.879-5.672-11.127-16.745-22.09-22.308a41.749,41.749,0,0,0-6.044-2.5,26.294,26.294,0,0,0-47.391,17.121,40.009,40.009,0,0,0,4.4,22.258C616.838,1237.806,642.655,1265.87,663.635,1251.179Z" fill="#fb855f"/>
        <path d="M652.758,1182.352,603,1209.373l-16.337-21.182-125.789-162.9a51.018,51.018,0,0,1,40.78-81.529,50.926,50.926,0,0,1,44.818,26.679l15.344,30.593,1.646,3.292,2.888,5.777,72.864,145.232Z" fill="#ffaa40"/>
        <path d="M725.012,839.851c-37.153,0-45.5-42.391-45.577-42.822l2.421-.453c.077.416,8.169,41.516,44.028,40.8,7.28-.135,24.433-4.124,26.478-38.148l2.457.148c-.434,7.215-1.942,17.622-6.663,26.23-5.081,9.263-12.559,14.051-22.226,14.232Q725.468,839.851,725.012,839.851Z" fill="#251138"/>
        <rect x="730.582" y="838.507" width="2.461" height="332.96" transform="translate(-35.19 26.592) rotate(-2.033)" fill="#251138"/>
        <circle cx="738.575" cy="878.518" r="3.579"/>
        <circle cx="741.298" cy="930.154" r="3.579"/>
        <circle cx="744.02" cy="981.789" r="3.579"/>
        <circle cx="746.742" cy="1033.425" r="3.579"/>
        <circle cx="749.465" cy="1085.06" r="3.579"/>
        <circle cx="752.187" cy="1136.695" r="3.579" fill="#001065"/>
        <polygon points="1096.505 1042.96 1087.529 1098.866 1062.092 1098.897 1072.124 1038.239 1096.505 1042.96" fill="#ffaa40"/>
        <path d="M652.766,1182.352l-49.756,27.021-16.337-21.182c13.045-8.386,50.346-32.208,52.552-32.86Z" fill="#ffaa40"/>
        <rect x="594.369" y="964.694" width="32.525" height="2.462" transform="translate(-504.162 714.694) rotate(-45)" fill="#251138"/>
        <rect x="541.635" y="999.192" width="22.999" height="2.462" fill="#251138"/>
      </g>
      <rect x="858.857" y="1010.692" width="32.525" height="2.462" transform="translate(-459.221 915.188) rotate(-45)" fill="#251138"/>
      <rect x="615.15" y="1091.062" width="2.462" height="25.714" transform="translate(-428.592 392.165) rotate(-26.563)" fill="#251138"/>
      <rect x="850.889" y="1066.865" width="2.462" height="34.499" fill="#251138"/>
    </g>
    <g>
      <path d="M1553.475,1251.9c-126.992,73.373-120.968,212.52-63.306,178.693,0,0,2.162,48.952,41.671,28.257s6.584-84.661,9.406-133.577S1553.475,1251.9,1553.475,1251.9Z" fill="#5f6386"/>
      <path d="M1482.925,1543.88a1.307,1.307,0,0,1-1.307-1.292,906.013,906.013,0,0,1,5.417-96.812c5.379-48.842,17.326-115.881,43.7-157.881a1.307,1.307,0,1,1,2.213,1.39c-26.108,41.579-37.965,108.206-43.314,156.777a902.93,902.93,0,0,0-5.4,96.5,1.307,1.307,0,0,1-1.292,1.321Z" fill="#30354f"/>
      <path d="M1494.807,1404.407a2.966,2.966,0,0,1-.921-.147c-4.112-1.35-5.913-18.773-6.621-29.038a1.306,1.306,0,0,1,2.606-.18c.832,12.05,2.983,25.673,4.861,26.747.02.005.14.043.4-.1,2.1-1.108,4.659-7.678,5.783-11.559a1.306,1.306,0,0,1,2.51.726c-.537,1.854-3.4,11.2-7.072,13.143A3.307,3.307,0,0,1,1494.807,1404.407Z"/>
      <path d="M1504.507,1362.519a6.088,6.088,0,0,1-1.756-.27c-7-2.1-8.531-18.679-8.683-20.563a1.307,1.307,0,0,1,2.605-.21c.519,6.427,2.834,17.071,6.83,18.271a2.919,2.919,0,0,0,2.52-.292c2.52-1.544,3.926-6.586,4.254-8.4a1.307,1.307,0,0,1,2.572.464c-.056.313-1.425,7.685-5.456,10.159A5.439,5.439,0,0,1,1504.507,1362.519Z" fill="#30354f"/>
      <path d="M1358.754,1249.081c126.052-2.195,202.562,199.088,109.434,185.93,0,0-26.654,19.452-50.484-3.124s-7.526-90.306-18.187-117.9S1358.754,1249.081,1358.754,1249.081Z" fill="#9fa3bf"/>
      <path d="M1306.076,1311.953c93.441,2.035,196.747,132.609,138.509,143.2,0,0-11.917,38.815-60.789,12.476s-27.352-82.246-39.465-109.7C1332.415,1330.92,1306.076,1311.953,1306.076,1311.953Z" fill="#5f6386"/>
      <path d="M1454.7,1521.618a1.306,1.306,0,0,1-1.181-1.863c7.354-15.627,12.566-45.975,13.281-77.315.793-34.834-4.019-63.111-13.2-77.582-20.929-32.98-40.19-64.006-45.916-81.185a1.307,1.307,0,1,1,2.479-.827c5.628,16.886,25.634,49.082,45.643,80.612,21.118,33.277,15.313,125.036.079,157.41A1.309,1.309,0,0,1,1454.7,1521.618Z" fill="#30354f"/>
      <path d="M1430.517,1325.064l-22.3-14.367a1.306,1.306,0,1,1,1.415-2.2l17.724,11.418c-.3-4.683-.409-14.247,3.075-19.223a1.306,1.306,0,0,1,2.14,1.5c-4.057,5.8-2.4,19.966-2.387,20.108Z" fill="#30354f"/>
      <path d="M1455.051,1367.143l-3.319-5.234c-1.215-1.916-10.321-6.741-15.775-9.334a1.306,1.306,0,1,1,1.121-2.359c1.9.9,9.7,4.675,14.09,7.781-.536-6.459-.812-20.436,5.684-27.932a1.307,1.307,0,1,1,1.975,1.711c-7.669,8.85-4.73,29.036-4.7,29.238Z" fill="#30354f"/>
      <path d="M1469.126,1526.008a1.306,1.306,0,0,1-1.3-1.247c-2.217-48.231-27.669-79.009-50.749-91.73-18.834-10.381-51.7-61.448-65.114-86.483a1.306,1.306,0,0,1,2.3-1.233c13.285,24.8,45.718,75.311,64.072,85.428,6.947,3.828,20.353,12.836,32.088,30.142,12.157,17.929,18.89,39.38,20.01,63.756a1.306,1.306,0,0,1-1.244,1.365Z" fill="#30354f"/>
      <path d="M1371.785,1376.6l-1.486-.167c-8.835-.992-12.439-5.643-12.588-5.842a1.307,1.307,0,0,1,2.082-1.579c.056.07,2.788,3.469,9.336,4.616.034-4.6.624-17.072,5.923-20.016a1.307,1.307,0,0,1,1.269,2.285c-3.605,2-4.716,12.844-4.57,19.208Z" fill="#30354f"/>
      <path d="M1404.4,1422.657l-5.514-6.208c-2.358-2.653-11.97-6.057-15.476-7.145a1.307,1.307,0,0,1,.775-2.5,82.639,82.639,0,0,1,12.813,5.15c-2.605-6.994-6.564-20.291-.677-23.95a1.306,1.306,0,1,1,1.379,2.218c-4.323,2.689-.234,16.657,3.358,24.83Z" fill="#30354f"/>
      <polygon points="1541.246 1492.09 1540.071 1507.141 1536.369 1554.585 1524.689 1704.336 1523.826 1715.346 1414.429 1715.346 1411.563 1678.624 1400.937 1542.46 1398.185 1507.141 1397.009 1492.09 1541.246 1492.09" fill="#c7c7e3"/>
      <polygon points="1541.246 1492.09 1540.071 1507.141 1398.185 1507.141 1397.009 1492.09 1541.246 1492.09" fill="#494e6d"/>
    </g>
    <path d="M550.027,370.826l-2.8-89.779a16.805,16.805,0,0,1,21.977-16.572A64.824,64.824,0,0,1,572.993,386,16.8,16.8,0,0,1,550.027,370.826Z" fill="#fff0e3"/>
    <path d="M427.309,440.81l10.283,16.465a9.66,9.66,0,0,1-7.859,14.77l-19.4.673-19.4.672a9.659,9.659,0,0,1-8.863-14.19l9.118-17.138,9.118-17.137a9.659,9.659,0,0,1,16.72-.58Z" fill="#9fa3bf"/>
    <circle cx="1621.699" cy="1559.208" r="22.222" fill="#fff0e3"/>
    <rect x="268.852" y="1714.234" width="1462.296" height="11.078" rx="5.539" fill="#5f6386"/>
    <path d="M996.791,1293.256h-2.462c0-9.489-14.845-28.224-85.566-63.584-42.585-21.292-85.722-38.6-86.153-38.769l.914-2.286c.431.173,43.665,17.515,86.34,38.853C967.544,1256.31,996.791,1278.444,996.791,1293.256Z" fill="#251138"/>
    <polygon points="768.593 1293.27 766.131 1293.27 766.131 1255.699 709.314 1227.291 710.415 1225.088 768.593 1254.177 768.593 1293.27" fill="#251138"/>
    <rect x="876.745" y="1352.81" width="25.715" height="2.462" transform="translate(-511.628 540.792) rotate(-26.565)" fill="#251138"/>
    <rect x="1008.704" y="1319.219" width="25.714" height="2.462" transform="translate(-482.674 596.259) rotate(-26.565)" fill="#251138"/>
    <g>
      <rect x="1456.655" y="1004.426" width="28.496" height="34.294" transform="translate(-314.714 1158.455) rotate(-39.164)" fill="#db8631"/>
      <circle cx="1400.702" cy="924.874" r="113.194" fill="#ffaa40"/>
      <circle cx="1400.702" cy="924.874" r="84.698" fill="#fff" opacity="0.63"/>
      <rect x="1503.074" y="1003.043" width="40.569" height="165.096" rx="5.615" transform="translate(-343.361 1205.965) rotate(-39.164)" fill="#494e6d"/>
      <g opacity="0.33">
        <g clip-path="url(#a)">
          <g>
            <rect x="1425.81" y="809.951" width="31.463" height="234.444" transform="translate(260.342 -314.785) rotate(13.688)" fill="#fff"/>
            <rect x="1397.707" y="806.676" width="3.776" height="234.444" transform="translate(258.376 -304.952) rotate(13.688)" fill="#fff"/>
          </g>
        </g>
      </g>
    </g>
  </g>
</symbol>

<symbol viewBox="0 0 2000 2000" id="no-image">
  <defs>
    <clipPath id="a">
      <rect x="535.691" y="411.452" width="922.911" height="922.911" rx="170.426" transform="translate(1185.68 -438.856) rotate(56.98)" fill="none"/>
    </clipPath>
  </defs>
  <g>
    <path d="M245,1699.977H1755s-338.98-205.442-575.238-143.81-380.068,82.177-534.15,30.817S245,1699.977,245,1699.977Z" fill="#ebedfc"/>
    <g>
      <rect x="535.691" y="411.452" width="922.911" height="922.911" rx="170.426" transform="translate(1185.68 -438.856) rotate(56.98)" fill="#ebedfc"/>
      <g clip-path="url(#a)">
        <g>
          <path d="M530.31,1469.976h-80.9V492.391h80.9Zm-72.7-8.2h64.509V500.587H457.605Z" fill="#fff"/>
          <path d="M747.749,1542.006H618.38V249.371H747.749Zm-121.174-8.2H739.554V257.566H626.575Z" fill="#fff"/>
          <path d="M1608.081,475.679H509.324V370.545H1608.081Zm-1090.562-8.2H1599.886V378.74H517.519Z" fill="#fff"/>
          <path d="M1826.194,802.847H460.854V552.3h1365.34ZM469.049,794.652H1818V560.5H469.049Z" fill="#fff"/>
          <path d="M1826.2,1227.617H460.863V977.074H1826.2Zm-1357.145-8.195H1818.007V985.27H469.058Z" fill="#fff"/>
          <path d="M1377.852,1505.654h-93.017V346.31h93.017Zm-84.822-8.195h76.626V354.505H1293.03Z" fill="#fff"/>
          <path d="M1608.081,1445.067H1490.83V491.718h117.251Zm-109.056-8.195h100.861V499.913H1499.025Z" fill="#fff"/>
        </g>
      </g>
    </g>
    <path d="M1195.82,728.376s-76.221-7.2-139.3-1.3c-18.792,1.745-36.428,4.659-50.536,9.26-21.89,7.183-35.249,18.432-31.233,35.808a23.811,23.811,0,0,0,3.109,7.462c.017.007.034.015.026.032a27.118,27.118,0,0,0,4.489,5.358.856.856,0,0,0,.127.118,42.847,42.847,0,0,0,12.489,7.637c11.24,4.738,26.263,7.122,43.068,7.886,66.59,3.074,161.244-18.911,161.244-18.911C1215.12,755.766,1195.82,728.376,1195.82,728.376Z" fill="#1c5276"/>
    <g>
      <path d="M1191.5,731.819s10.967-6.806,21.9-6.857,18.325,1.151,29.289-4.7,16.329,6.215,6.559,10.894-26.47,10.035-16.154,18.988,46.234,5.249,37.593,24.034c0,0,16.536,1.988,14.883,8.5s-16.65,4.795-16.65,4.795,8.9,16.331-28.445,5.762c0,0-.5,8.563-8.014,7.376-12.012-1.9-34.875-15.667-48.967-30.832C1160.6,745.131,1191.5,731.819,1191.5,731.819Z" fill="#fd8b66"/>
      <path d="M1269.989,774.793c-2.861,0-14.058-.919-41.708-12.473l.451-1.081c31.757,13.27,41.8,12.374,41.893,12.359l.134,1.163A6.922,6.922,0,0,1,1269.989,774.793Z" fill="#e56542"/>
      <path d="M1268.806,788.045c-.273-.056-27.425-5.7-43.753-14.132l.538-1.04c16.183,8.354,43.18,13.97,43.45,14.025Z" fill="#e56542"/>
      <path d="M1240.227,793.762c-.127-.061-12.833-6.146-22.589-11.291l.546-1.035c9.735,5.134,22.421,11.209,22.548,11.269Z" fill="#e56542"/>
    </g>
    <g>
      <path d="M604.34,1584.478c-6.022,5.472-13.406,9.248-19.75,14.353s-11.893,12.23-11.954,20.377c-.046,7.307,4.326,14.033,4.6,21.34.367,10.013-7.062,18.757-15.469,24.229-8.393,5.457-18.084,8.759-26.354,14.431a54.713,54.713,0,0,0-16.831,18.649h-13.7c2.491-14.446,8.774-28.616,6.726-43.092-1.162-8.225-4.938-15.791-7.6-23.633-2.659-7.858-4.188-16.693-.886-24.29.244-.551.5-1.1.795-1.636,2.017-3.791,5.029-7.032,7.643-10.487a61.888,61.888,0,0,0,10.517-51.194c-2.568-10.471-7.857-20.056-11.327-30.267-8.24-24.244-4.158-54.5,16.127-70.134,13.849-10.685,32.392-12.8,49.895-12.9l11.159.321c8.438-1.192,16,6.42,18.176,14.644,2.17,8.24.489,16.923-.6,25.376-1.085,8.438-1.391,17.595,3.088,24.84,2.645,4.281,6.742,7.506,9.264,11.847,2.446,4.22,3.241,9.172,3.775,14.018C624.152,1543.831,621.125,1569.191,604.34,1584.478Z" fill="#5f6386"/>
      <path d="M578.354,1530.532c-2.2,17.014-7.46,33.187-14.737,48.687-7.184,15.3-15.928,29.793-24.015,44.621-12.26,22.471-23.724,48.076-23.633,74.017H511.46c0-2.385.092-4.785.26-7.154a119.754,119.754,0,0,1,4.616-24.963q.344-1.146.688-2.293c9.784-31.627,29.793-58.531,43.49-88.4a153.782,153.782,0,0,0,13.834-49.742,146.969,146.969,0,0,0-4.4-51.944c-.78-2.843,3.653-4.05,4.418-1.207A150.732,150.732,0,0,1,578.354,1530.532Z" fill="#fff"/>
      <path d="M518.232,1652.884q-.482,5.3-1.208,10.563a242.488,242.488,0,0,1-5.3,27.256c-.612,2.4-1.254,4.785-1.942,7.154H488.989v.978a9.792,9.792,0,0,0-.627-.978c-1.3-2-2.675-3.974-4.142-5.885-12.474-16.494-29.886-29.748-47.266-41.457-4-2.706-8.209-5.534-10.548-9.783-2.323-4.235-2.063-10.334,1.911-13.1,2.4-1.681,5.641-1.834,7.98-3.623,3.622-2.767,3.546-8.53,1.192-12.428s-6.329-6.481-10.028-9.141a102.974,102.974,0,0,1-36.626-48.06c-6.91-19.246-7.429-40.831-.75-60.168,4.357-12.611,12.108-24.55,23.618-31.307,11.526-6.741,27.164-7.276,37.727.9,7.108,5.5,11.2,14.263,12.413,23.159,1.207,8.912-.245,17.993-2.645,26.645-1.529,5.487-3.363,11.663-.5,16.6,4.31,7.414,15.164,6.206,23.311,8.912,11.1,3.7,17.763,17.273,13.9,28.325-2.828,8.072-10.4,15.394-8.285,23.694,1.7,6.65,8.667,9.921,14.308,14.064.581.413,1.131.841,1.666,1.284C518.522,1617.083,519.76,1636.253,518.232,1652.884Z" fill="#9fa3bf"/>
      <path d="M488.989,1697.857v.978a9.792,9.792,0,0,0-.627-.978h-3.944c-.03-1.957-.107-3.929-.2-5.885-.092-1.987-.23-3.959-.383-5.931a197.03,197.03,0,0,0-10.395-49.3,187.893,187.893,0,0,0-10.119-23.694c-4.112-8.041-8.927-15.7-13.1-23.709a163.979,163.979,0,0,1-16.356-100.417c.443-2.92,4.861-1.682,4.418,1.208a158.47,158.47,0,0,0,1.865,58c3.775,17.228,10.563,33.126,19.276,48.4a261.288,261.288,0,0,1,12.4,23.74,199.351,199.351,0,0,1,8.7,23.419A201.452,201.452,0,0,1,488.989,1697.857Z" fill="#fff"/>
      <path d="M488.989,1697.857v.978a9.792,9.792,0,0,0-.627-.978Z" fill="#c7c7e3"/>
    </g>
    <g>
      <path d="M1521.75,1584.478c-6.023,5.472-13.406,9.248-19.75,14.353s-11.893,12.23-11.954,20.377c-.046,7.307,4.326,14.033,4.6,21.34.367,10.013-7.062,18.757-15.47,24.229-8.392,5.457-18.084,8.759-26.354,14.431a54.71,54.71,0,0,0-16.83,18.649h-13.7c2.492-14.446,8.775-28.616,6.726-43.092-1.162-8.225-4.937-15.791-7.6-23.633-2.66-7.858-4.189-16.693-.887-24.29.245-.551.5-1.1.8-1.636,2.018-3.791,5.029-7.032,7.643-10.487a61.888,61.888,0,0,0,10.518-51.194c-2.568-10.471-7.858-20.056-11.328-30.267-8.239-24.244-4.158-54.5,16.127-70.134,13.85-10.685,32.392-12.8,49.9-12.9l11.159.321c8.439-1.192,16.005,6.42,18.176,14.644,2.171,8.24.489,16.923-.6,25.376-1.085,8.438-1.391,17.595,3.088,24.84,2.644,4.281,6.741,7.506,9.263,11.847,2.446,4.22,3.241,9.172,3.776,14.018C1541.561,1543.831,1538.534,1569.191,1521.75,1584.478Z" fill="#5f6386"/>
      <path d="M1495.763,1530.532c-2.2,17.014-7.46,33.187-14.736,48.687-7.185,15.3-15.929,29.793-24.015,44.621-12.26,22.471-23.725,48.076-23.633,74.017h-4.509c0-2.385.091-4.785.259-7.154a119.691,119.691,0,0,1,4.617-24.963q.343-1.146.688-2.293c9.783-31.627,29.793-58.531,43.489-88.4a153.783,153.783,0,0,0,13.835-49.742,146.946,146.946,0,0,0-4.4-51.944c-.779-2.843,3.654-4.05,4.418-1.207A150.713,150.713,0,0,1,1495.763,1530.532Z" fill="#fff"/>
      <path d="M1435.641,1652.884q-.482,5.3-1.207,10.563a242.267,242.267,0,0,1-5.305,27.256q-.916,3.6-1.941,7.154H1406.4v.978a9.606,9.606,0,0,0-.626-.978c-1.3-2-2.676-3.974-4.143-5.885-12.474-16.494-29.885-29.748-47.266-41.457-4.005-2.706-8.209-5.534-10.547-9.783s-2.064-10.334,1.91-13.1c2.4-1.681,5.641-1.834,7.98-3.623,3.623-2.767,3.546-8.53,1.192-12.428s-6.328-6.481-10.028-9.141a102.981,102.981,0,0,1-36.626-48.06c-6.909-19.246-7.429-40.831-.749-60.168,4.357-12.611,12.107-24.55,23.618-31.307,11.525-6.741,27.164-7.276,37.727.9,7.108,5.5,11.205,14.263,12.412,23.159,1.208,8.912-.244,17.993-2.644,26.645-1.529,5.487-3.363,11.663-.5,16.6,4.311,7.414,15.164,6.206,23.312,8.912,11.1,3.7,17.763,17.273,13.895,28.325-2.828,8.072-10.394,15.394-8.285,23.694,1.7,6.65,8.667,9.921,14.308,14.064.581.413,1.131.841,1.666,1.284C1435.932,1617.083,1437.17,1636.253,1435.641,1652.884Z" fill="#9fa3bf"/>
      <path d="M1406.4,1697.857v.978a9.606,9.606,0,0,0-.626-.978h-3.944c-.031-1.957-.107-3.929-.2-5.885-.092-1.987-.229-3.959-.382-5.931a197.075,197.075,0,0,0-10.395-49.3,188.039,188.039,0,0,0-10.119-23.694c-4.113-8.041-8.928-15.7-13.1-23.709a163.964,163.964,0,0,1-16.356-100.417c.443-2.92,4.861-1.682,4.417,1.208a158.47,158.47,0,0,0,1.865,58c3.776,17.228,10.563,33.126,19.276,48.4a261.3,261.3,0,0,1,12.4,23.74,199.351,199.351,0,0,1,8.7,23.419A201.411,201.411,0,0,1,1406.4,1697.857Z" fill="#fff"/>
      <path d="M1406.4,1697.857v.978a9.606,9.606,0,0,0-.626-.978Z" fill="#c7c7e3"/>
    </g>
    <path d="M1317.814,677.983h63.055a30.189,30.189,0,0,1,30.189,30.189v47.515a0,0,0,0,1,0,0h-93.244a0,0,0,0,1,0,0v-77.7A0,0,0,0,1,1317.814,677.983Z" fill="#db8631"/>
    <path d="M470.57,1456.568h17.578a10.657,10.657,0,0,1,10.657,10.657v40.213a0,0,0,0,1,0,0H459.913a0,0,0,0,1,0,0v-40.213A10.657,10.657,0,0,1,470.57,1456.568Z" transform="translate(-459.432 2724.899) rotate(-125.011)" fill="#fb855f"/>
    <path d="M859.034,1614.257h17.578a10.657,10.657,0,0,1,10.657,10.657v40.213a0,0,0,0,1,0,0H848.377a0,0,0,0,1,0,0v-40.213A10.657,10.657,0,0,1,859.034,1614.257Z" transform="translate(1735.646 3279.383) rotate(-180)" fill="#fb855f"/>
    <path d="M823.943,736.467S910.113,786.129,976,797.815c22.007,3.913,41.736,3.589,55.257-4.221.009-.016.018-.032.034-.023a36.252,36.252,0,0,0,5.683-4.071.811.811,0,0,0,.127-.117,34,34,0,0,0,8.561-11.876,37.279,37.279,0,0,0,1.634-4.3c4.067-12.847-3.609-25.209-17.957-36.633-11.445-9.116-27.134-17.647-44.507-25.394-57.845-25.725-134.285-42.573-134.285-42.573C818.671,667.841,795.181,714.878,823.943,736.467Z" fill="#1c5276"/>
    <path d="M1337.9,1672.587H1042.628V750.568a72.584,72.584,0,0,1,72.585-72.585h253.769s-31.081,15.54-31.081,62.162v932.442Z" fill="#ffaa40"/>
    <path d="M887.047,1340.928h0a53.716,53.716,0,0,0,53.66-50.7c6.661-120.5,9.589-243.94,6.766-334.478H829.865c3.716,103.131,4.63,223.138,3.441,330.836A53.741,53.741,0,0,0,887.047,1340.928Z" fill="#68a3c1"/>
    <polygon points="947.292 1059.578 933.991 1047.8 933.967 1047.309 929.403 955.695 931.741 955.579 936.281 1046.7 948.845 1057.826 947.292 1059.578" fill="#251138"/>
    <path d="M887.092,1237.321h0a53.537,53.537,0,0,1,53.451,56.725c-6.209,103.856-15.064,255.644-19.672,322.233H829.865c3.613-75.868,2.517-231.408,3.685-326.09A53.534,53.534,0,0,1,887.092,1237.321Z" fill="#68a3c1"/>
    <path d="M696.735,1303.575h0a53.717,53.717,0,0,0,63.359-37.891c32.574-116.206,62.14-236.088,78.972-325.093L724.244,915.146c-18.685,101.493-43.757,218.855-68.219,323.745A53.74,53.74,0,0,0,696.735,1303.575Z" fill="#68a3c1"/>
    <path d="M747.753,1209.454h0a53.537,53.537,0,0,1,1.319,77.929c-74.525,72.6-183.281,178.854-231.528,224.98l-67.281-61.281c53.759-53.656,157.686-169.385,222.306-238.6A53.534,53.534,0,0,1,747.753,1209.454Z" fill="#68a3c1"/>
    <path d="M947.473,955.748s-3.009-238.7-68.829-272.673C840.91,663.6,762.816,668.885,722.992,695.8c-40.193,27.161-11.806,259.95-11.806,259.95Z" fill="#1c5276"/>
    <g>
      <path d="M821.941,918.05a.233.233,0,0,0-.086-.071c-1.336-1.227-2.59-2.45-3.719-3.7-4.437-4.866-7.3-10.1-8.2-15.692a24.464,24.464,0,0,1-.175-6.14c1.361-13.968,11.727-20.924,27.325-23.142,14.071-2.032,32.382-.2,52.175,3.764,64.252,12.873,143.991,48.311,143.991,48.311s9.57,32.086-13.7,51.671c0,0-102.4-9.84-164.147-35.565C841.739,931.808,830.084,925.341,821.941,918.05Z" fill="#1c5276"/>
      <path d="M1021.375,922.884s11.6-6.7,22.525-5.98,18.183,2.563,29.693-3.086,15.7,7.984,5.495,12.431-27.393,9.148-17.959,19.713,45.648,9.041,35.208,29.063c0,0,16.316,3.355,14.038,10.387s-17.085,4.087-17.085,4.087,7.309,18.57-28.952,4.314c0,0-1.329,9.371-8.712,7.536-11.809-2.935-33.3-19.681-45.907-37.337C989.234,935.317,1021.375,922.884,1021.375,922.884Z" fill="#fd8b66"/>
      <path d="M1096.2,975.613c-1.487,0-12.041-.638-41.056-16.685l.567-1.025c30.4,16.813,40.487,16.545,40.6,16.537l.064,1.169C1096.347,975.61,1096.289,975.613,1096.2,975.613Z" fill="#e56542"/>
      <path d="M1093.12,990.059c-.267-.081-26.834-8.209-42.324-18.627l.653-.972c15.347,10.322,41.746,18.4,42.011,18.479Z" fill="#e56542"/>
      <path d="M1064.027,994.309c-.12-.076-12.219-7.659-21.461-14l.662-.965c9.222,6.329,21.3,13.9,21.421,13.975Z" fill="#e56542"/>
    </g>
    <path d="M924.353,768.162c-.152-.58-15.343-58.119-30.668-70.959l1.5-1.795c15.9,13.317,30.8,69.765,31.43,72.161Z" fill="#251138"/>
    <polygon points="888.037 1075.634 786.445 1071.016 818.769 969.424 867.257 962.497 888.037 1075.634" fill="#68a3c1"/>
    <polygon points="825.793 1026.005 825.599 1023.671 852.093 1021.463 844.16 956.868 846.484 956.582 854.714 1023.594 825.793 1026.005" fill="#251138"/>
    <polygon points="696.753 1058.278 696.04 1056.048 714.656 1050.09 737.589 956.063 739.865 956.618 716.62 1051.921 696.753 1058.278" fill="#251138"/>
    <polygon points="920.871 1616.279 923.825 1587.059 833.777 1583.595 829.865 1616.279 920.871 1616.279" fill="#251138"/>
    <polygon points="542.854 1487.775 517.545 1512.363 450.264 1451.082 475.896 1426.589 542.854 1487.775" fill="#251138"/>
    <path d="M807.546,728.619c-33.529,0-43.245-21.321-52.863-50.863l2.226-.725c10.41,31.972,20.17,52.643,59.437,48.792,37.654-3.692,34.388-55.184,34.35-55.7l2.336-.169c.039.543,3.469,54.289-36.457,58.2C813.385,728.466,810.381,728.619,807.546,728.619Z" fill="#251138"/>
    <path d="M866.574,907.017a.23.23,0,0,1,.058-.1,34.4,34.4,0,0,0,2.346-4.7,42.13,42.13,0,0,0,2.774-17.487c-.417-12.1-4.731-25.845-11.418-40.18-28.187-60.391-98.622-131.116-98.622-131.116-11.58-9.514-25.135-9.283-36.409-3.549-20.179,10.264-27.349,35.6-16.576,55.512,12.875,23.8,45.813,82,79.7,120.414,14.7,16.661,29.58,29.6,43.086,34.388,8.273,2.941,16.013,2.824,22.877-1.354A35.473,35.473,0,0,0,866.574,907.017Z" fill="#1c5276"/>
    <g>
      <path d="M742.907,588.755c-21.434,31.615-19.244,51.669-2.217,64.461,42.417,22.608,87.819,23.565,122.187,6.728A29.583,29.583,0,0,0,875,649.013c14.512-23.386,6.823-49.569-16.088-81.445a67.091,67.091,0,0,0-4.948-6.186c-31.513-34.389-78.768-28.885-109.7,25.2C743.846,587.31,743.381,588.056,742.907,588.755Z" fill="#8e3332"/>
      <path d="M830.2,685.629c-.758,12.616-5,27.125-20.648,26.368-27.428-1.326-34.058-30.156-34.058-30.156s13.284-50.888,13.928-51.305l39.906,9.631v27.467A88.9,88.9,0,0,1,830.2,685.629Z" fill="#eb8f90"/>
      <path d="M830.51,681.9c-39.438-8.183-41.088-30.817-41.088-30.817l35.36-10.913h4.546v27.467S831.078,672.35,830.51,681.9Z" fill="#d16b70"/>
      <path d="M847.524,643.138a26.9,26.9,0,0,1-6.893,11.845,29.393,29.393,0,0,1-13.242,7.627c-44.085,11.845-55.929-45.955-55.929-45.955l.166-6.254.782-28.877c6.537-1.8,26.862-3.932,44.866-5.259.284-.023.568-.047.876-.047,13.55-1,25.631-1.516,29.184-1.066.83,5.97,1.517,11.442,2.062,16.487C851.906,615.494,851.172,629.92,847.524,643.138Z" fill="#eb8f90"/>
      <ellipse cx="776.67" cy="624.273" rx="11.718" ry="15.088" fill="#eb8f90"/>
      <path d="M768.675,621.945c-.158.081,8.242-8.884,14.559,1.184C783.234,623.129,774.055,619.181,768.675,621.945Z" fill="#d16b70"/>
      <path d="M818.15,576.218c13.55-1,29.922-6.053,33.475-5.6.829,5.97-2.774,15.979-2.23,21.024a18.261,18.261,0,0,1-32.6-11.3,17.76,17.76,0,0,1,.474-4.075Z" fill="#8e3332"/>
      <path d="M817.274,576.265c-18,1.327-41.288,2.822-47.826,4.623l2.178,29.513a30.708,30.708,0,0,0,19.069,6.561c15.421,0,28.118-11.157,29.848-25.56a26.831,26.831,0,0,0,.213-3.387,27.813,27.813,0,0,0-2.606-11.8Z" fill="#8e3332"/>
    </g>
    <path d="M885.869,1645.059l92.518,18.475a12.82,12.82,0,0,1,10.31,12.573h0a12.821,12.821,0,0,1-12.821,12.821H844.333l2.644-43.4Z" fill="#251138"/>
    <path d="M485.317,1499.862l37.949,86.377a12.822,12.822,0,0,1-4.382,15.658h0a12.821,12.821,0,0,1-17.856-3.145l-75.472-107.74,37.066-22.735Z" fill="#251138"/>
    <path d="M459.318,1308.495H373.883a15.984,15.984,0,0,1-15.1-21.383,61.657,61.657,0,0,1,115.642,0A15.983,15.983,0,0,1,459.318,1308.495Z" fill="#ebedfc"/>
    <path d="M352.49,663.92l-2.66-85.393a15.983,15.983,0,0,1,20.9-15.762,61.657,61.657,0,0,1,3.6,115.586A15.985,15.985,0,0,1,352.49,663.92Z" fill="#ebedfc"/>
    <path d="M1489.232,1265.737l26.522,1.093a13.208,13.208,0,0,1,10.614,20.266l-14.207,22.422-14.207,22.423A13.208,13.208,0,0,1,1475.1,1331l-12.315-23.514-12.315-23.515a13.208,13.208,0,0,1,12.244-19.325Z" fill="#9fa3bf"/>
    <path d="M469.919,1018.493l9.78,15.661a9.187,9.187,0,0,1-7.474,14.048l-18.453.64-18.453.64a9.187,9.187,0,0,1-8.429-13.5l8.672-16.3,8.672-16.3a9.188,9.188,0,0,1,15.9-.551Z" fill="#9fa3bf"/>
    <circle cx="679.892" cy="378.801" r="21.136" fill="#9fa3bf"/>
    <path d="M763.742,1485.462a28.022,28.022,0,1,1,28.021-28.022A28.054,28.054,0,0,1,763.742,1485.462Zm0-51.36a23.339,23.339,0,1,0,23.338,23.338A23.365,23.365,0,0,0,763.742,1434.1Z" fill="#ebedfc"/>
    <path d="M772.934,853.944c-21.147-10.574-61.986-81.737-63.714-84.761l2.033-1.162c.42.735,42.211,73.57,62.728,83.828Z" fill="#251138"/>
    <rect x="845.033" y="856.994" width="14.901" height="2.341" transform="translate(-357.127 854.148) rotate(-45)" fill="#251138"/>
    <rect x="919.803" y="850.409" width="2.342" height="47.122" transform="translate(-272.601 1306.863) rotate(-63.435)" fill="#251138"/>
    <path d="M1181.522,1044.755a17.162,17.162,0,0,1-12.447-4.786,16.031,16.031,0,0,1-4.944-12.042q0-12.867,6.82-28.208A74.69,74.69,0,0,1,1192.1,972.5q9.543-7.92,17.563-15.673a63.663,63.663,0,0,0,12.959-17.816q4.94-10.061,4.946-24.579a40.56,40.56,0,0,0-19.611-34.809q-9.384-5.769-23.019-5.774-16.715,0-27.623,5.939a37.744,37.744,0,0,0-16.2,16.5q-5.289,10.562-5.285,24.745a16.345,16.345,0,0,1-4.775,12.042q-4.78,4.787-12.619,4.784a17.166,17.166,0,0,1-12.447-4.784,16.041,16.041,0,0,1-4.946-12.042q0-23.091,10.4-40.582a73.372,73.372,0,0,1,29.328-27.549q18.928-10.06,44.164-10.063,22.164,0,39.39,9.073a70.337,70.337,0,0,1,27.282,25.075q10.054,16.006,10.06,37.448,0,18.48-6.138,32a83.413,83.413,0,0,1-16.71,24.249,242.2,242.2,0,0,1-24.215,21.281,35.525,35.525,0,0,0-12.277,17.981q-3.413,11.059-3.409,17.981a16.341,16.341,0,0,1-4.775,12.042Q1189.359,1044.757,1181.522,1044.755Zm0,61.036a22.974,22.974,0,0,1-16.539-6.764,21.511,21.511,0,0,1-6.992-16,21.892,21.892,0,0,1,6.992-16.332,23,23,0,0,1,16.539-6.764,23.422,23.422,0,0,1,16.883,6.764,21.916,21.916,0,0,1,6.99,16.332,21.535,21.535,0,0,1-6.99,16A23.4,23.4,0,0,1,1181.522,1105.791Z" fill="#fff"/>
  </g>
</symbol>




</svg>