<svg xmlns="http://www.w3.org/2000/svg" xmlns:svg="http://www.w3.org/2000/svg" xmlns:xlink="http://www.w3.org/1999/xlink" viewBox="0 0 51.674 51.674">

<symbol viewBox="0 0 64 64" id="arrowLeft">
  <path data-name="layer1" d="M25.121 47.121L11.128 33.128l-.012-.012L9 31l16.121-16.121a3 3 0 0 1 4.242 4.242l-8.879 8.88h29.517a3 3 0 1 1 0 6H20.486l8.877 8.878a3 3 0 0 1-4.242 4.242z"
    stroke-miterlimit="10" stroke-linejoin="round"
  stroke-linecap="round"></path>
</symbol>

<symbol viewBox="0 0 64 64" id="arrowRight">
  <path data-name="layer1" d="M38.879 47.121l13.993-13.993.012-.012L55 31 38.879 14.879a3 3 0 0 0-4.242 4.242l8.879 8.88H13.999a3 3 0 0 0 0 6h29.515l-8.877 8.878a3 3 0 0 0 4.242 4.242z"
  stroke-miterlimit="10" stroke-linejoin="round" stroke-linecap="round"></path>
</symbol>

<symbol viewBox="0 0 64 64" id="characters">
  <circle data-name="layer2" cx="32" cy="9" r="7" stroke-miterlimit="10" stroke-linejoin="round" stroke-linecap="round"></circle>
  <path data-name="layer1" d="M43 22h-5l-6 10-6-10h-5a3 3 0 0 0-3 3v16a3 3 0 0 0 3 3h3v15a3 3 0 0 0 3 3h10a3 3 0 0 0 3-3V44h3a3 3 0 0 0 3-3V25a3 3 0 0 0-3-3z"
  stroke-miterlimit="10" stroke-linejoin="round"  stroke-linecap="round"></path>
</symbol>

<symbol viewBox="0 0 64 64" id="home">
  <path data-name="layer2"
  stroke-linecap="round" stroke-miterlimit="10" d="M54 22.6V8h-9v7.445M40 62h14V29.769M10 30v32h14" stroke-linejoin="round"></path>
  <circle data-name="layer2" cx="32" cy="29" r="5"  stroke-linecap="round" stroke-miterlimit="10" stroke-linejoin="round"></circle>
  <path data-name="layer1" stroke-linecap="round"
  stroke-miterlimit="10" d="M24 42h16v20H24zm8-37L2.436 28.651a.5.5 0 0 0-.036.749l3.287 3.287a.5.5 0 0 0 .668.035L32 12l25.65 20.718a.5.5 0 0 0 .668-.035l3.287-3.283a.5.5 0 0 0-.041-.744z"
  stroke-linejoin="round"></path>
</symbol>

<symbol viewBox="0 0 64 64" id="left">
  <path data-name="layer1" stroke-miterlimit="10" d="M24 32.001L38 46l4-4.485-9.515-9.514L42 22.487 38 18 24 32.001z"
  stroke-linejoin="round" stroke-linecap="round"></path>
</symbol>

<symbol viewBox="0 0 64 64" id="right">
  <path data-name="layer1" stroke-miterlimit="10" d="M40 31.998L26 18l-4 4.486 9.515 9.512L22 41.513 26 46l14-14.002z"
  stroke-linejoin="round" stroke-linecap="round"></path>
</symbol>

<symbol viewBox="0 0 64 64" id="down">
  <path data-name="layer1"
  d="M21 22a2.99 2.99 0 0 1 2.121.879l8.89 8.636 8.868-8.636a3 3 0 0 1 4.242 4.242L32.011 40 18.879 27.121A3 3 0 0 1 21 22z"
  stroke-miterlimit="10" stroke-linejoin="round" stroke-linecap="round"></path>
</symbol>

<symbol viewBox="0 0 64 64" id="up">
 <path data-name="layer1"
  d="M43 40a2.992 2.992 0 0 1-2.121-.879l-8.89-8.635-8.868 8.635a3 3 0 0 1-4.242-4.242L31.989 22l13.132 12.879A3 3 0 0 1 43 40z"
  stroke-miterlimit="10" stroke-linejoin="round" stroke-linecap="round"></path>
</symbol>

<symbol viewBox="0 0 64 64" id="search">
  <path data-name="layer2" d="M41.54 37.285L61.122 56.88a3 3 0 0 1-4.244 4.242l-19.58-19.593" stroke-miterlimit="10" stroke-linejoin="round" stroke-linecap="round"></path>
  <circle data-name="layer1" cx="24" cy="24" r="22" stroke-miterlimit="10" stroke-linejoin="round" stroke-linecap="round"></circle>
  <circle data-name="layer1" cx="24" cy="24" r="16" stroke-miterlimit="10" stroke-linejoin="round" stroke-linecap="round"></circle>
</symbol>

<symbol viewBox="0 0 64 64" id="comic">
  <path data-name="layer2" d="M24 51.9a8 8 0 0 1 8 8v-44a8 8 0 0 0-8-8H2v44zm8-36a8 8 0 0 1 8-8h22v44H40a8 8 0 0 0-8 8" stroke-miterlimit="10" stroke-linejoin="round"
  stroke-linecap="round"></path>
  <path data-name="layer1" stroke-miterlimit="10" d="M10 17.9h14m-14 8h14m-14 8h14m-14 8h14m16-24h14m-14 8h14m-14 8h14m-14 8h14"
  stroke-linejoin="round" stroke-linecap="round"></path>
</symbol>

<symbol viewBox="0 0 64 64" id="calendar">
  <circle data-name="layer2" cx="8" cy="12" r="1" stroke-linecap="round" stroke-linejoin="round"></circle>
  <circle data-name="layer2" cx="15" cy="12" r="1" stroke-linecap="round" stroke-linejoin="round"></circle>
  <circle data-name="layer2" cx="22" cy="12" r="1" stroke-linecap="round" stroke-linejoin="round"></circle>
  <path data-name="layer2" stroke-linecap="round" stroke-linejoin="round" d="M2 6h52v12H2zm52 22V18M2 18v32h30"></path>
  <circle data-name="layer1" cx="46" cy="42" r="16" stroke-linecap="round" stroke-linejoin="round"></circle>
  <path data-name="layer1" stroke-linecap="round" stroke-linejoin="round" d="M46 34v10h8"></path>
</symbol>

<symbol viewBox="0 0 64 64" id="series">
  <path data-name="layer2" stroke-miterlimit="10" d="M28 58V46m8 12V46M14 58h36M2 6h60v40H2z" stroke-linejoin="round" stroke-linecap="round"></path>
  <path data-name="layer1" stroke-miterlimit="10" d="M6 10h52v31.99H6z" stroke-linejoin="round" stroke-linecap="round"></path>
</symbol>

<symbol viewBox="0 0 2000 2000" id="no-data">
  <defs>
    <clipPath id="a">
      <circle cx="717.831" cy="803.447" r="59.007" fill="none"/>
    </clipPath>
  </defs>
  <g>
    <g>
      <path d="M1558.025,860.873q0,8.129-.243,16.2-.18,6.456-.521,12.876a549.624,549.624,0,0,1-16.21,107.131,542.639,542.639,0,0,1-21.824,67.278,548.473,548.473,0,0,1-58.064,108.611q-5.4,7.893-11.105,15.567a553.462,553.462,0,0,1-55.712,64.247q-10.64,10.53-21.824,20.454a551.552,551.552,0,0,1-145.493,92.994q-10.785,4.711-21.824,8.948a547.229,547.229,0,0,1-141.855,33.9q-10.857,1.11-21.824,1.782-17.149,1.054-34.554,1.067a551.6,551.6,0,0,1-136.4-17.023q-11-2.781-21.824-6.037a548.068,548.068,0,0,1-141.855-65.739q-11.112-7.219-21.824-14.961a554.012,554.012,0,0,1-78.53-68.721q-6.492-6.856-12.743-13.943a552.841,552.841,0,0,1-50.582-66.867q-11.6-18.041-21.824-37.027a548.063,548.063,0,0,1-65.326-248.356c-.1-4.111-.146-8.245-.146-12.379v-.11a548.6,548.6,0,0,1,56.754-243.712q2.364-4.82,4.838-9.566,1.909-3.692,3.88-7.347,10.2-18.969,21.824-37.028A553.626,553.626,0,0,1,682.341,415.568c.909-.667,1.819-1.334,2.728-1.988,2.267-1.637,4.547-3.262,6.838-4.85q7.4-5.184,14.986-10.112A548.032,548.032,0,0,1,848.748,332.88q10.821-3.256,21.824-6.038a551.646,551.646,0,0,1,136.4-17.023q17.4,0,34.554,1.067,10.966.673,21.824,1.782a547.229,547.229,0,0,1,141.855,33.9q11.022,4.237,21.824,8.948a549.534,549.534,0,0,1,103.882,59.543q4.692,3.382,9.287,6.9,16.677,12.657,32.324,26.552,11.184,9.93,21.824,20.454A551.991,551.991,0,0,1,1481.7,580.945q2.856,4.819,5.59,9.687a546.96,546.96,0,0,1,53.759,134.035A551.855,551.855,0,0,1,1558.025,860.873Z" fill="#ebedfc"/>
      <path d="M1340.2,421.958a772.989,772.989,0,0,1-111.047,49.322c-74.456,26.176-150.064,39.343-224.035,39.343a596.509,596.509,0,0,1-157.811-20.951,594.868,594.868,0,0,1-164.964-74.1c.909-.667,1.819-1.334,2.728-1.988,2.267-1.637,4.547-3.262,6.838-4.85a582.913,582.913,0,0,0,158.284,70.418c156.8,42.969,326.668,18.248,480.72-64.089Q1335.6,418.442,1340.2,421.958Z" fill="#fff"/>
      <path d="M1487.292,590.632q-32.446,19.46-66.321,36.507c-112.2,56.5-231.333,90.872-354.093,102.16q-44.139,4.054-88.435,4.061a970.786,970.786,0,0,1-185.407-17.895,1033.016,1033.016,0,0,1-220.251-69.582q-30.444-13.476-60.113-28.832,2.364-4.82,4.838-9.566c133.465,69.351,321.854,131.78,548.374,110.95,172.833-15.895,313.852-76.541,415.818-137.49Q1484.558,585.765,1487.292,590.632Z" fill="#fff"/>
      <path d="M1557.782,877.071q-.18,6.456-.521,12.876-37.809,18.477-76.529,34.4c-149.845,61.58-303.995,92.606-459.454,92.606q-47.92,0-95.989-3.941c-191.274-15.664-350.067-75.886-469.225-139.757-.1-4.111-.146-8.245-.146-12.379v-.11c118.662,64.369,277.891,125.621,470.269,141.383C1184.654,1023.315,1402.918,953.406,1557.782,877.071Z" fill="#fff"/>
      <path d="M1461.163,1172.967q-5.4,7.893-11.105,15.567a1535.394,1535.394,0,0,1-448.93,86.387q-30.735,1.236-61.484,1.236a1531.873,1531.873,0,0,1-333.1-36.712q-6.492-6.856-12.743-13.943a1517.9,1517.9,0,0,0,345.267,39.755q30.444,0,61.628-1.248A1525.389,1525.389,0,0,0,1461.163,1172.967Z" fill="#fff"/>
    </g>
    <rect x="194.031" y="533.514" width="883.868" height="632.893" rx="14.549" fill="#fff"/>
    <path d="M636.2,995.161q-10.322,0-17.12-6.582a22.053,22.053,0,0,1-6.8-16.563q0-17.7,9.381-38.8t29.082-37.438q13.123-10.893,24.156-21.557a87.559,87.559,0,0,0,17.823-24.5q6.795-13.836,6.8-33.807a55.784,55.784,0,0,0-26.973-47.876q-12.906-7.935-31.66-7.942-22.989,0-37.993,8.169a51.9,51.9,0,0,0-22.282,22.69q-7.276,14.528-7.27,34.034a22.479,22.479,0,0,1-6.567,16.563q-6.576,6.585-17.356,6.58-10.322,0-17.12-6.58a22.058,22.058,0,0,1-6.8-16.563q0-31.76,14.31-55.816t40.337-37.891q26.035-13.839,60.745-13.842,30.485,0,54.178,12.48a96.75,96.75,0,0,1,37.524,34.488q13.828,22.015,13.836,51.506,0,25.419-8.442,44.018A114.741,114.741,0,0,1,715,893.283a332.828,332.828,0,0,1-33.305,29.27,48.867,48.867,0,0,0-16.887,24.731q-4.692,15.212-4.689,24.732a22.478,22.478,0,0,1-6.567,16.563Q646.98,995.162,636.2,995.161Zm0,83.951a31.6,31.6,0,0,1-22.748-9.3q-9.622-9.294-9.618-22.008a30.11,30.11,0,0,1,9.618-22.463,31.625,31.625,0,0,1,22.748-9.3,32.212,32.212,0,0,1,23.221,9.3,30.142,30.142,0,0,1,9.614,22.463q0,12.709-9.614,22.008A32.184,32.184,0,0,1,636.2,1079.112Z" fill="#494e6d"/>
    <path d="M292.239,1679.269c35.257-43.476,92.427-99.279,174.591-120.031,111.471-28.155,161.254,35.406,294.623,21.823,141.123-14.372,139.252-91.025,261.886-98.207,147.08-8.614,162.795,100.881,338.271,109.119,124.231,5.833,172.417-46.416,272.8-10.912,67.8,23.98,113.509,71.757,141.855,109.12Z" fill="#ebedfc"/>
    <path d="M1077.9,548.063v84.265H194.031V548.063a14.592,14.592,0,0,1,14.549-14.549h854.77A14.592,14.592,0,0,1,1077.9,548.063Z" fill="#ffaa40"/>
    <path d="M1063.35,1169.438H208.58a17.6,17.6,0,0,1-17.58-17.58V548.063a17.6,17.6,0,0,1,17.58-17.58h854.77a17.6,17.6,0,0,1,17.58,17.58v603.795A17.6,17.6,0,0,1,1063.35,1169.438ZM208.58,536.545a11.531,11.531,0,0,0-11.518,11.518v603.795a11.531,11.531,0,0,0,11.518,11.518h854.77a11.531,11.531,0,0,0,11.518-11.518V548.063a11.531,11.531,0,0,0-11.518-11.518Z" fill="#ebedfc"/>
    <path d="M1809,1684.725a5.463,5.463,0,0,1-5.456,5.456H243.135a5.456,5.456,0,0,1,0-10.912H1803.544A5.464,5.464,0,0,1,1809,1684.725Z" fill="#5f6386"/>
    <path d="M1561.4,843.9a55.543,55.543,0,0,1-1.577,14.028l-121.7-6.365.085-.182,17.022-33.936A56.509,56.509,0,0,1,1561.4,843.9Z" fill="#68a3c1"/>
    <path d="M264.656,607.17a19.1,19.1,0,1,1,19.1-19.1A19.118,19.118,0,0,1,264.656,607.17Zm0-32.13a13.034,13.034,0,1,0,13.033,13.034A13.049,13.049,0,0,0,264.656,575.04Z" fill="#251138"/>
    <path d="M342.252,607.17a19.1,19.1,0,1,1,19.1-19.1A19.118,19.118,0,0,1,342.252,607.17Zm0-32.13a13.034,13.034,0,1,0,13.034,13.034A13.049,13.049,0,0,0,342.252,575.04Z" fill="#251138"/>
    <path d="M418.635,607.17a19.1,19.1,0,1,1,19.1-19.1A19.118,19.118,0,0,1,418.635,607.17Zm0-32.13a13.034,13.034,0,1,0,13.034,13.034A13.048,13.048,0,0,0,418.635,575.04Z" fill="#251138"/>
    <g>
      <g>
        <g>
          <path d="M1172.586,1485.278h0a65.027,65.027,0,0,1-62.944-63.442c-3.35-146.058-2.07-295.524,4.884-404.957l142.3,4.6c-8.527,124.636-14.321,269.8-17.091,400.152A65.057,65.057,0,0,1,1172.586,1485.278Z" fill="#494e6d"/>
          <path d="M1239.3,1425.976c-.013.753-.027,1.506-.053,2.272-1.413,69.4-4.639,164.955-6.656,249.833-.108,4.06-.188,8.093-.282,12.1H1116.939c-.121-3.993-.228-8.027-.35-12.1-2.325-81.866-4.853-176.962-6.9-251.621-.027-1.062-.027-2.111,0-3.16a64.818,64.818,0,0,1,129.609,2.676Z" fill="#494e6d"/>
          <path d="M1404.308,1447.52h0a65.027,65.027,0,0,1-75.179-48.321c-34.871-141.874-65.96-288.076-82.847-396.422l139.92-26.3c18.641,123.528,44.391,266.506,69.889,394.371A65.057,65.057,0,0,1,1404.308,1447.52Z" fill="#494e6d"/>
          <path d="M1556.089,1690.181H1435.73c-1.519-3.98-3.065-8.027-4.638-12.1-30.95-80.683-68.6-179.53-97.663-255.628a64.721,64.721,0,0,1,41.087-84.931v-.013a64.809,64.809,0,0,1,81.046,41.571c.592,1.8,1.2,3.63,1.788,5.472v.014c27.078,82.645,64.522,203.017,94.692,293.515C1553.4,1682.181,1554.758,1686.215,1556.089,1690.181Z" fill="#494e6d"/>
          <polygon points="1181.754 1164.254 1304.853 1162.637 1269.712 1038.455 1211.317 1028.18 1181.754 1164.254" fill="#494e6d"/>
          <polygon points="1259.026 1106.435 1224.34 1102.414 1236.884 1021.866 1239.28 1022.239 1227.125 1100.296 1259.306 1104.026 1259.026 1106.435" fill="#251138"/>
          <polygon points="1110.556 1142.355 1109.007 1140.489 1124.711 1127.464 1133.77 1017.306 1136.187 1017.505 1127.043 1128.679 1110.556 1142.355" fill="#251138"/>
          <polygon points="1413.939 1150.535 1390.259 1142.106 1365.882 1026.002 1368.255 1025.503 1392.352 1140.278 1414.751 1148.251 1413.939 1150.535" fill="#251138"/>
        </g>
        <path d="M777.3,934.938c-.571-12.5,21.438-19.8,40.509-24.133-8.161-6.845-14.442-15.515-12.33-19.947,3.035-6.37,22.247-1.561,34.556,4.3a46.406,46.406,0,0,1,6.29,3.618A29.187,29.187,0,0,1,867.577,948.5a29.416,29.416,0,0,1-4.213,3.506,44.375,44.375,0,0,1-22.534,11.206C820.729,967,778.592,963.317,777.3,934.938Z" fill="#eb8f90"/>
        <path d="M1121.39,959.383a53.255,53.255,0,0,1-8.33.752l-42.435-.036-187.322-.17-28.214-.024-9.966-62.017,27.049-5.237,196.61-38.168,1.843-.352,9.287-1.794,4.753-.921,18.611-3.626a58.909,58.909,0,0,1,9.056-.715,56.526,56.526,0,0,1,9.058,112.308Z" fill="#68a3c1"/>
        <path d="M1113.33,958.418l.344.069a49.6,49.6,0,0,0,7.717.895,52.8,52.8,0,0,0,52.228-35.45l64.768-186.208a67.313,67.313,0,1,0-129.674-34.864l-27.113,140.7-1.688,8.785-2.2,11.438-6.3,32.694A52.9,52.9,0,0,0,1113.33,958.418Z" fill="#68a3c1"/>
        <path d="M1113.941,1016.02c46.1,79.72,158.922,3.066,277.779,0V655.834c-57.4-43.408-167.6-43.856-247.945,0Z" fill="#68a3c1"/>
        <ellipse cx="1319.79" cy="499.339" rx="13.944" ry="4.693" transform="translate(-53.93 176.728) rotate(-7.508)" fill="#8e3332"/>
        <ellipse cx="1319.79" cy="499.339" rx="13.944" ry="3.212" transform="translate(434.904 1598.503) rotate(-71.888)" fill="#8e3332"/>
        <path d="M1227.108,636.056c1.044,17.388,6.892,37.387,28.457,36.342,37.8-1.827,46.941-41.563,46.941-41.563s-3.08-56.862-3.968-57.437h-70.229v37.856A122.555,122.555,0,0,0,1227.108,636.056Z" fill="#fb855f"/>
        <path d="M1227.108,636.056c54.356-11.278,62.084-39.944,62.084-39.944L1234.574,573.4h-6.265v37.856A122.555,122.555,0,0,0,1227.108,636.056Z" fill="#e56542"/>
        <path d="M1308.84,552.791s-16.3,79.655-77.065,63.346a40.432,40.432,0,0,1-18.249-10.528,37.294,37.294,0,0,1-9.505-16.311c-6.114-22.088-5.03-58.152,1.551-105.251l103.268,8.782Z" fill="#fb855f"/>
        <path d="M1312.691,558.788c-.2,0-12.107-12.968-22.514,4.5,0,0,18.365-8.65,22.31-4.5Z" fill="#f35757"/>
        <path d="M1284.463,524.108c-48.274,8.464-88.014-3.567-98.417-32.668a17.547,17.547,0,0,1,16.978-23.391c22.187.6,59.79,8.661,96.42,15.157a30.587,30.587,0,0,1,7.89,2.52c21.4,10.278,27.423,29.838,22.567,55.957-8.216,38.815-20.866,45.793-34.507,45.652C1296.251,564.187,1278.571,545.952,1284.463,524.108Z" fill="#8e3332"/>
        <ellipse cx="1301.673" cy="563.289" rx="16.151" ry="20.795" fill="#fb855f"/>
        <path d="M1312.691,560.08c.218.112-11.359-12.243-20.066,1.633C1292.625,561.713,1305.277,556.271,1312.691,560.08Z" fill="#e56542"/>
        <path d="M1318.761,767.076l112.449,84.1,5.167,3.858,5.271,3.962,35.037,26.183a52.844,52.844,0,0,0,74-10.68l.207-.276a52.915,52.915,0,0,0-4.927-69.04L1406.715,665.653a67.3,67.3,0,1,0-87.954,101.423Z" fill="#68a3c1"/>
        <path d="M1325.266,1128.848c-10.247-7.175-2.6-29.064,5.61-46.817-10.4,2.286-21.1,1.969-23.326-2.409-3.193-6.292,12.342-18.574,24.5-24.745a46.372,46.372,0,0,1,6.705-2.774,29.165,29.165,0,0,1,52.567,18.991,44.381,44.381,0,0,1-4.878,24.689C1377.173,1114.014,1348.537,1145.144,1325.266,1128.848Z" fill="#eb8f90"/>
        <path d="M1561.4,843.9a55.543,55.543,0,0,1-1.577,14.028,56.232,56.232,0,0,1-9.65,20.357l-139.528,180.7-18.126,23.485-55.191-29.971,15.023-29.972,80.821-161.085,3.213-6.413,1.734-3.468.085-.182,17.022-33.936A56.509,56.509,0,0,1,1561.4,843.9Z" fill="#68a3c1"/>
        <path d="M1257.186,672.443c-.338,0-.672,0-1.016-.01-10.663-.2-18.914-5.483-24.522-15.706-5.225-9.524-6.893-21.044-7.373-29.03l2.42-.146c2.276,37.867,21.4,42.306,29.52,42.457.321.006.642.009.959.009,39.07,0,47.945-44.936,48.03-45.394l2.385.446C1307.5,625.546,1298.264,672.443,1257.186,672.443Z" fill="#251138"/>
        <rect x="1064.979" y="854.555" width="369.325" height="2.424" transform="translate(349.861 2074.1) rotate(-87.957)" fill="#251138"/>
        <circle cx="1242.14" cy="715.486" r="3.969"/>
        <circle cx="1239.121" cy="772.761" r="3.969"/>
        <circle cx="1236.101" cy="830.036" r="3.969"/>
        <circle cx="1233.082" cy="887.311" r="3.969"/>
        <circle cx="1230.062" cy="944.586" r="3.969"/>
        <circle cx="1227.042" cy="1001.861" r="3.969" fill="#001065"/>
        <polygon points="845.119 897.887 855.075 959.899 883.291 959.933 872.163 892.651 845.119 897.887" fill="#68a3c1"/>
        <path d="M1337.321,1052.5l55.191,29.972,18.121-23.5c-14.469-9.3-55.845-35.726-58.291-36.449Z" fill="#68a3c1"/>
        <rect x="1382.846" y="794.399" width="2.425" height="36.078" transform="translate(-169.1 1216.634) rotate(-45)" fill="#251138"/>
        <rect x="1435.08" y="849.492" width="25.511" height="2.425" fill="#251138"/>
      </g>
      <g>
        <rect x="761.119" y="855.52" width="19.853" height="23.892" transform="translate(1907.049 1105.175) rotate(143.451)" fill="#6b2eca"/>
        <path d="M737.283,727.031A78.858,78.858,0,1,0,760.422,869.8a78.548,78.548,0,0,0,33.827-46.9A78.851,78.851,0,0,0,737.283,727.031Zm37.727,90.981A59.006,59.006,0,1,1,732.4,746.27,59.015,59.015,0,0,1,775.01,818.012Z" fill="#ffaa40"/>
        <rect x="791.117" y="856.377" width="28.264" height="115.018" rx="5.53" transform="translate(1996.372 1168.518) rotate(143.451)" fill="#494e6d"/>
        <g opacity="0.33">
          <g clip-path="url(#a)">
            <g>
              <rect x="701.402" y="749.749" width="21.92" height="163.331" transform="translate(1551.172 127.776) rotate(90.599)" fill="#fff"/>
              <rect x="716.046" y="720.866" width="2.631" height="163.331" transform="translate(1527.343 93.592) rotate(90.599)" fill="#fff"/>
            </g>
          </g>
        </g>
      </g>
      <rect x="1089.471" y="845.421" width="2.425" height="36.078" transform="translate(-291.105 1024.131) rotate(-45)" fill="#251138"/>
      <rect x="1363.419" y="964.291" width="28.522" height="2.425" transform="translate(-102.01 1765.952) rotate(-63.435)" fill="#251138"/>
      <rect x="1114.982" y="924.403" width="2.425" height="38.266" fill="#251138"/>
    </g>
    <path d="M656,1679.269H627.854c-23.824-29.638-39.9-51.765-50.286-68.2-16.671-26.4-18.677-38.119-14.555-42.671,7.487-8.257,36.834,5.261,53.972,18.768,19.023,15,28.85,34.585,33.881,51.923A130.717,130.717,0,0,1,656,1679.269Z" fill="#5f6386"/>
    <path d="M642.692,1681.694a2.424,2.424,0,0,1-2.38-1.975,148.539,148.539,0,0,0-26.706-61.123,145.8,145.8,0,0,0-31.39-30.81,2.425,2.425,0,0,1,2.84-3.931,150.681,150.681,0,0,1,32.434,31.836,153.391,153.391,0,0,1,27.586,63.128,2.423,2.423,0,0,1-1.932,2.832A2.328,2.328,0,0,1,642.692,1681.694Z" fill="#30354f"/>
    <path d="M681.317,1679.608c53.382-154.364,53.641-199.4,39.809-206.672-14.956-7.867-49.719,26.659-67.1,54.813-41.281,66.872-11.655,141.8-7.561,151.681Z" fill="#9fa3bf"/>
    <path d="M665.836,1677.7a2.425,2.425,0,0,1-2.385-2A231.215,231.215,0,0,1,669.346,1569a226.9,226.9,0,0,1,29.462-61.871,2.425,2.425,0,1,1,4.017,2.719,222.017,222.017,0,0,0-28.835,60.55,226.344,226.344,0,0,0-5.765,104.455,2.423,2.423,0,0,1-1.961,2.813A2.316,2.316,0,0,1,665.836,1677.7Z" fill="#30354f"/>
    <path d="M1635.986,1679.269h-41.421c-35.067-43.624-58.721-76.193-74.015-100.383-24.538-38.859-27.492-56.107-21.424-62.808,11.02-12.153,54.216,7.745,79.441,27.625,28,22.075,42.464,50.9,49.87,76.425A192.422,192.422,0,0,1,1635.986,1679.269Z" fill="#5f6386"/>
    <path d="M1616.406,1681.694a2.424,2.424,0,0,1-2.38-1.975,219.791,219.791,0,0,0-39.516-90.439,215.773,215.773,0,0,0-46.449-45.592,2.425,2.425,0,1,1,2.842-3.931,220.664,220.664,0,0,1,47.491,46.617,224.628,224.628,0,0,1,40.4,92.445,2.423,2.423,0,0,1-1.932,2.832A2.328,2.328,0,0,1,1616.406,1681.694Z" fill="#30354f"/>
    <path d="M1673.257,1679.768c78.573-227.208,78.954-293.492,58.6-304.2-22.014-11.578-73.181,39.24-98.762,80.679-60.76,98.428-17.154,208.711-11.128,223.259Z" fill="#9fa3bf"/>
    <path d="M1650.472,1675.818a2.424,2.424,0,0,1-2.384-2c-9.363-52.475-6.374-106.6,8.646-156.528a332.783,332.783,0,0,1,43.216-90.756,2.425,2.425,0,0,1,4.017,2.718,328.016,328.016,0,0,0-42.59,89.435c-14.8,49.2-17.745,102.551-8.515,154.278a2.426,2.426,0,0,1-2.39,2.852Z" fill="#30354f"/>
    <path d="M1529.712,1231.524H1566c18.255,0,29.664,19.118,20.537,34.413l-18.145,30.405-18.146,30.4c-9.127,15.295-31.946,15.295-41.073,0l-18.145-30.4-18.146-30.405c-9.127-15.295,2.282-34.413,20.537-34.413Z" fill="#ebedfc"/>
    <path d="M1414.942,421.286a21.415,21.415,0,0,1-17.118-8.391,20.213,20.213,0,0,1-2.713-20.318l22.181-53.319a21.21,21.21,0,0,1,16.781-12.834,21.6,21.6,0,0,1,20.082,7.75l36.637,45.243a20.215,20.215,0,0,1,3.169,20.386A21.142,21.142,0,0,1,1476.888,413l-58.818,8.074A23.009,23.009,0,0,1,1414.942,421.286Zm22.38-90.889a18.393,18.393,0,0,0-2.647.191,17.042,17.042,0,0,0-13.5,10.287l-22.181,53.318a16.058,16.058,0,0,0,2.163,16.134A17.376,17.376,0,0,0,1417.5,416.9l58.818-8.074a16.985,16.985,0,0,0,13.733-10.575,16.056,16.056,0,0,0-2.528-16.19l-36.637-45.244A17.32,17.32,0,0,0,1437.322,330.4Z" fill="#ebedfc"/>
    <path d="M1695.812,786.337l14.155,22.511c7.12,11.323-1.1,25.857-14.8,26.161l-27.228.6-27.228.6c-13.7.3-22.6-13.851-16.021-25.478l13.074-23.115,13.073-23.114c6.577-11.628,23.7-12.007,30.817-.684Z" fill="#fff0e3"/>
    <path d="M543.826,330.955,565.892,346.4a16.955,16.955,0,0,1-3.161,29.665l-24.859,10.765-24.858,10.765c-12.5,5.415-26.379-4.3-24.974-17.48l2.792-26.21,2.793-26.21c1.4-13.184,17.035-19.953,28.135-12.184Z" fill="#ebedfc"/>
    <path d="M588.074,1326.094V1361.2c0,17.661-19.762,28.7-35.571,19.868l-31.428-17.554-31.429-17.555a22.574,22.574,0,0,1,0-39.736l31.429-17.555,31.428-17.554c15.809-8.831,35.571,2.207,35.571,19.868Z" fill="#fff0e3"/>
  </g>
</symbol>


</svg>