<svg xmlns="http://www.w3.org/2000/svg" xmlns:svg="http://www.w3.org/2000/svg" xmlns:xlink="http://www.w3.org/1999/xlink" viewBox="0 0 51.674 51.674">

<symbol viewBox="0 0 64 64" id="arrowLeft">
  <path data-name="layer1" d="M25.121 47.121L11.128 33.128l-.012-.012L9 31l16.121-16.121a3 3 0 0 1 4.242 4.242l-8.879 8.88h29.517a3 3 0 1 1 0 6H20.486l8.877 8.878a3 3 0 0 1-4.242 4.242z"
    stroke-miterlimit="10" stroke-linejoin="round"
  stroke-linecap="round"></path>
</symbol>

<symbol viewBox="0 0 64 64" id="arrowRight">
  <path data-name="layer1" d="M38.879 47.121l13.993-13.993.012-.012L55 31 38.879 14.879a3 3 0 0 0-4.242 4.242l8.879 8.88H13.999a3 3 0 0 0 0 6h29.515l-8.877 8.878a3 3 0 0 0 4.242 4.242z"
  stroke-miterlimit="10" stroke-linejoin="round" stroke-linecap="round"></path>
</symbol>

<symbol viewBox="0 0 64 64" id="character">
  <circle data-name="layer2" cx="32" cy="9" r="7" stroke-miterlimit="10" stroke-linejoin="round" stroke-linecap="round"></circle>
  <path data-name="layer1" d="M43 22h-5l-6 10-6-10h-5a3 3 0 0 0-3 3v16a3 3 0 0 0 3 3h3v15a3 3 0 0 0 3 3h10a3 3 0 0 0 3-3V44h3a3 3 0 0 0 3-3V25a3 3 0 0 0-3-3z"
  stroke-miterlimit="10" stroke-linejoin="round"  stroke-linecap="round"></path>
</symbol>

<symbol viewBox="0 0 64 64" id="home">
  <path data-name="layer2"
  stroke-linecap="round" stroke-miterlimit="10" d="M54 22.6V8h-9v7.445M40 62h14V29.769M10 30v32h14" stroke-linejoin="round"></path>
  <circle data-name="layer2" cx="32" cy="29" r="5"  stroke-linecap="round" stroke-miterlimit="10" stroke-linejoin="round"></circle>
  <path data-name="layer1" stroke-linecap="round"
  stroke-miterlimit="10" d="M24 42h16v20H24zm8-37L2.436 28.651a.5.5 0 0 0-.036.749l3.287 3.287a.5.5 0 0 0 .668.035L32 12l25.65 20.718a.5.5 0 0 0 .668-.035l3.287-3.283a.5.5 0 0 0-.041-.744z"
  stroke-linejoin="round"></path>
</symbol>

<symbol viewBox="0 0 64 64" id="left">
  <path data-name="layer1" stroke-miterlimit="10" d="M24 32.001L38 46l4-4.485-9.515-9.514L42 22.487 38 18 24 32.001z"
  stroke-linejoin="round" stroke-linecap="round"></path>
</symbol>

<symbol viewBox="0 0 64 64" id="right">
  <path data-name="layer1" stroke-miterlimit="10" d="M40 31.998L26 18l-4 4.486 9.515 9.512L22 41.513 26 46l14-14.002z"
  stroke-linejoin="round" stroke-linecap="round"></path>
</symbol>

<symbol viewBox="0 0 64 64" id="down">
  <path data-name="layer1"
  d="M21 22a2.99 2.99 0 0 1 2.121.879l8.89 8.636 8.868-8.636a3 3 0 0 1 4.242 4.242L32.011 40 18.879 27.121A3 3 0 0 1 21 22z"
  stroke-miterlimit="10" stroke-linejoin="round" stroke-linecap="round"></path>
</symbol>

<symbol viewBox="0 0 64 64" id="up">
 <path data-name="layer1"
  d="M43 40a2.992 2.992 0 0 1-2.121-.879l-8.89-8.635-8.868 8.635a3 3 0 0 1-4.242-4.242L31.989 22l13.132 12.879A3 3 0 0 1 43 40z"
  stroke-miterlimit="10" stroke-linejoin="round" stroke-linecap="round"></path>
</symbol>

<symbol viewBox="0 0 64 64" id="search">
  <path data-name="layer2"
  d="M41.54 37.285L61.122 56.88a3 3 0 0 1-4.244 4.242l-19.58-19.593" stroke-miterlimit="10" stroke-linejoin="round" stroke-linecap="round"></path>
  <circle data-name="layer1" cx="24" cy="24" r="22" stroke-miterlimit="10" stroke-linejoin="round" stroke-linecap="round"></circle>
  <circle data-name="layer1" cx="24" cy="24" r="16" stroke-miterlimit="10" stroke-linejoin="round" stroke-linecap="round"></circle>
</symbol>

<symbol viewBox="0 0 64 64" id="comic">
  <path data-name="layer2"   d="M24 51.9a8 8 0 0 1 8 8v-44a8 8 0 0 0-8-8H2v44zm8-36a8 8 0 0 1 8-8h22v44H40a8 8 0 0 0-8 8" stroke-miterlimit="10" stroke-linejoin="round"
  stroke-linecap="round"></path>
  <path data-name="layer1" stroke-miterlimit="10" d="M10 17.9h14m-14 8h14m-14 8h14m-14 8h14m16-24h14m-14 8h14m-14 8h14m-14 8h14"
  stroke-linejoin="round" stroke-linecap="round"></path>
</symbol>

<symbol viewBox="0 0 64 64" id="calendar">
  <circle data-name="layer2" cx="8" cy="12" r="1" stroke-linecap="round" stroke-linejoin="round"></circle>
  <circle data-name="layer2" cx="15" cy="12" r="1" stroke-linecap="round" stroke-linejoin="round"></circle>
  <circle data-name="layer2" cx="22" cy="12" r="1" stroke-linecap="round" stroke-linejoin="round"></circle>
  <path data-name="layer2" stroke-linecap="round" stroke-linejoin="round" d="M2 6h52v12H2zm52 22V18M2 18v32h30"></path>
  <circle data-name="layer1" cx="46" cy="42" r="16" stroke-linecap="round" stroke-linejoin="round"></circle>
  <path data-name="layer1" stroke-linecap="round" stroke-linejoin="round" d="M46 34v10h8"></path>
</symbol>

</svg>