<svg xmlns="http://www.w3.org/2000/svg" xmlns:xlink="http://www.w3.org/1999/xlink" width="2000" height="2000" viewBox="0 0 2000 2000">
  <defs>
    <clipPath id="a">
      <rect x="535.691" y="411.452" width="922.911" height="922.911" rx="170.426" transform="translate(1185.68 -438.856) rotate(56.98)" fill="none"/>
    </clipPath>
  </defs>
  <g>
    <path d="M245,1699.977H1755s-338.98-205.442-575.238-143.81-380.068,82.177-534.15,30.817S245,1699.977,245,1699.977Z" fill="#ebedfc"/>
    <g>
      <rect x="535.691" y="411.452" width="922.911" height="922.911" rx="170.426" transform="translate(1185.68 -438.856) rotate(56.98)" fill="#ebedfc"/>
      <g clip-path="url(#a)">
        <g>
          <path d="M530.31,1469.976h-80.9V492.391h80.9Zm-72.7-8.2h64.509V500.587H457.605Z" fill="#fff"/>
          <path d="M747.749,1542.006H618.38V249.371H747.749Zm-121.174-8.2H739.554V257.566H626.575Z" fill="#fff"/>
          <path d="M1608.081,475.679H509.324V370.545H1608.081Zm-1090.562-8.2H1599.886V378.74H517.519Z" fill="#fff"/>
          <path d="M1826.194,802.847H460.854V552.3h1365.34ZM469.049,794.652H1818V560.5H469.049Z" fill="#fff"/>
          <path d="M1826.2,1227.617H460.863V977.074H1826.2Zm-1357.145-8.195H1818.007V985.27H469.058Z" fill="#fff"/>
          <path d="M1377.852,1505.654h-93.017V346.31h93.017Zm-84.822-8.195h76.626V354.505H1293.03Z" fill="#fff"/>
          <path d="M1608.081,1445.067H1490.83V491.718h117.251Zm-109.056-8.195h100.861V499.913H1499.025Z" fill="#fff"/>
        </g>
      </g>
    </g>
    <path d="M1195.82,728.376s-76.221-7.2-139.3-1.3c-18.792,1.745-36.428,4.659-50.536,9.26-21.89,7.183-35.249,18.432-31.233,35.808a23.811,23.811,0,0,0,3.109,7.462c.017.007.034.015.026.032a27.118,27.118,0,0,0,4.489,5.358.856.856,0,0,0,.127.118,42.847,42.847,0,0,0,12.489,7.637c11.24,4.738,26.263,7.122,43.068,7.886,66.59,3.074,161.244-18.911,161.244-18.911C1215.12,755.766,1195.82,728.376,1195.82,728.376Z" fill="#1c5276"/>
    <g>
      <path d="M1191.5,731.819s10.967-6.806,21.9-6.857,18.325,1.151,29.289-4.7,16.329,6.215,6.559,10.894-26.47,10.035-16.154,18.988,46.234,5.249,37.593,24.034c0,0,16.536,1.988,14.883,8.5s-16.65,4.795-16.65,4.795,8.9,16.331-28.445,5.762c0,0-.5,8.563-8.014,7.376-12.012-1.9-34.875-15.667-48.967-30.832C1160.6,745.131,1191.5,731.819,1191.5,731.819Z" fill="#fd8b66"/>
      <path d="M1269.989,774.793c-2.861,0-14.058-.919-41.708-12.473l.451-1.081c31.757,13.27,41.8,12.374,41.893,12.359l.134,1.163A6.922,6.922,0,0,1,1269.989,774.793Z" fill="#e56542"/>
      <path d="M1268.806,788.045c-.273-.056-27.425-5.7-43.753-14.132l.538-1.04c16.183,8.354,43.18,13.97,43.45,14.025Z" fill="#e56542"/>
      <path d="M1240.227,793.762c-.127-.061-12.833-6.146-22.589-11.291l.546-1.035c9.735,5.134,22.421,11.209,22.548,11.269Z" fill="#e56542"/>
    </g>
    <g>
      <path d="M604.34,1584.478c-6.022,5.472-13.406,9.248-19.75,14.353s-11.893,12.23-11.954,20.377c-.046,7.307,4.326,14.033,4.6,21.34.367,10.013-7.062,18.757-15.469,24.229-8.393,5.457-18.084,8.759-26.354,14.431a54.713,54.713,0,0,0-16.831,18.649h-13.7c2.491-14.446,8.774-28.616,6.726-43.092-1.162-8.225-4.938-15.791-7.6-23.633-2.659-7.858-4.188-16.693-.886-24.29.244-.551.5-1.1.795-1.636,2.017-3.791,5.029-7.032,7.643-10.487a61.888,61.888,0,0,0,10.517-51.194c-2.568-10.471-7.857-20.056-11.327-30.267-8.24-24.244-4.158-54.5,16.127-70.134,13.849-10.685,32.392-12.8,49.895-12.9l11.159.321c8.438-1.192,16,6.42,18.176,14.644,2.17,8.24.489,16.923-.6,25.376-1.085,8.438-1.391,17.595,3.088,24.84,2.645,4.281,6.742,7.506,9.264,11.847,2.446,4.22,3.241,9.172,3.775,14.018C624.152,1543.831,621.125,1569.191,604.34,1584.478Z" fill="#5f6386"/>
      <path d="M578.354,1530.532c-2.2,17.014-7.46,33.187-14.737,48.687-7.184,15.3-15.928,29.793-24.015,44.621-12.26,22.471-23.724,48.076-23.633,74.017H511.46c0-2.385.092-4.785.26-7.154a119.754,119.754,0,0,1,4.616-24.963q.344-1.146.688-2.293c9.784-31.627,29.793-58.531,43.49-88.4a153.782,153.782,0,0,0,13.834-49.742,146.969,146.969,0,0,0-4.4-51.944c-.78-2.843,3.653-4.05,4.418-1.207A150.732,150.732,0,0,1,578.354,1530.532Z" fill="#fff"/>
      <path d="M518.232,1652.884q-.482,5.3-1.208,10.563a242.488,242.488,0,0,1-5.3,27.256c-.612,2.4-1.254,4.785-1.942,7.154H488.989v.978a9.792,9.792,0,0,0-.627-.978c-1.3-2-2.675-3.974-4.142-5.885-12.474-16.494-29.886-29.748-47.266-41.457-4-2.706-8.209-5.534-10.548-9.783-2.323-4.235-2.063-10.334,1.911-13.1,2.4-1.681,5.641-1.834,7.98-3.623,3.622-2.767,3.546-8.53,1.192-12.428s-6.329-6.481-10.028-9.141a102.974,102.974,0,0,1-36.626-48.06c-6.91-19.246-7.429-40.831-.75-60.168,4.357-12.611,12.108-24.55,23.618-31.307,11.526-6.741,27.164-7.276,37.727.9,7.108,5.5,11.2,14.263,12.413,23.159,1.207,8.912-.245,17.993-2.645,26.645-1.529,5.487-3.363,11.663-.5,16.6,4.31,7.414,15.164,6.206,23.311,8.912,11.1,3.7,17.763,17.273,13.9,28.325-2.828,8.072-10.4,15.394-8.285,23.694,1.7,6.65,8.667,9.921,14.308,14.064.581.413,1.131.841,1.666,1.284C518.522,1617.083,519.76,1636.253,518.232,1652.884Z" fill="#9fa3bf"/>
      <path d="M488.989,1697.857v.978a9.792,9.792,0,0,0-.627-.978h-3.944c-.03-1.957-.107-3.929-.2-5.885-.092-1.987-.23-3.959-.383-5.931a197.03,197.03,0,0,0-10.395-49.3,187.893,187.893,0,0,0-10.119-23.694c-4.112-8.041-8.927-15.7-13.1-23.709a163.979,163.979,0,0,1-16.356-100.417c.443-2.92,4.861-1.682,4.418,1.208a158.47,158.47,0,0,0,1.865,58c3.775,17.228,10.563,33.126,19.276,48.4a261.288,261.288,0,0,1,12.4,23.74,199.351,199.351,0,0,1,8.7,23.419A201.452,201.452,0,0,1,488.989,1697.857Z" fill="#fff"/>
      <path d="M488.989,1697.857v.978a9.792,9.792,0,0,0-.627-.978Z" fill="#c7c7e3"/>
    </g>
    <g>
      <path d="M1521.75,1584.478c-6.023,5.472-13.406,9.248-19.75,14.353s-11.893,12.23-11.954,20.377c-.046,7.307,4.326,14.033,4.6,21.34.367,10.013-7.062,18.757-15.47,24.229-8.392,5.457-18.084,8.759-26.354,14.431a54.71,54.71,0,0,0-16.83,18.649h-13.7c2.492-14.446,8.775-28.616,6.726-43.092-1.162-8.225-4.937-15.791-7.6-23.633-2.66-7.858-4.189-16.693-.887-24.29.245-.551.5-1.1.8-1.636,2.018-3.791,5.029-7.032,7.643-10.487a61.888,61.888,0,0,0,10.518-51.194c-2.568-10.471-7.858-20.056-11.328-30.267-8.239-24.244-4.158-54.5,16.127-70.134,13.85-10.685,32.392-12.8,49.9-12.9l11.159.321c8.439-1.192,16.005,6.42,18.176,14.644,2.171,8.24.489,16.923-.6,25.376-1.085,8.438-1.391,17.595,3.088,24.84,2.644,4.281,6.741,7.506,9.263,11.847,2.446,4.22,3.241,9.172,3.776,14.018C1541.561,1543.831,1538.534,1569.191,1521.75,1584.478Z" fill="#5f6386"/>
      <path d="M1495.763,1530.532c-2.2,17.014-7.46,33.187-14.736,48.687-7.185,15.3-15.929,29.793-24.015,44.621-12.26,22.471-23.725,48.076-23.633,74.017h-4.509c0-2.385.091-4.785.259-7.154a119.691,119.691,0,0,1,4.617-24.963q.343-1.146.688-2.293c9.783-31.627,29.793-58.531,43.489-88.4a153.783,153.783,0,0,0,13.835-49.742,146.946,146.946,0,0,0-4.4-51.944c-.779-2.843,3.654-4.05,4.418-1.207A150.713,150.713,0,0,1,1495.763,1530.532Z" fill="#fff"/>
      <path d="M1435.641,1652.884q-.482,5.3-1.207,10.563a242.267,242.267,0,0,1-5.305,27.256q-.916,3.6-1.941,7.154H1406.4v.978a9.606,9.606,0,0,0-.626-.978c-1.3-2-2.676-3.974-4.143-5.885-12.474-16.494-29.885-29.748-47.266-41.457-4.005-2.706-8.209-5.534-10.547-9.783s-2.064-10.334,1.91-13.1c2.4-1.681,5.641-1.834,7.98-3.623,3.623-2.767,3.546-8.53,1.192-12.428s-6.328-6.481-10.028-9.141a102.981,102.981,0,0,1-36.626-48.06c-6.909-19.246-7.429-40.831-.749-60.168,4.357-12.611,12.107-24.55,23.618-31.307,11.525-6.741,27.164-7.276,37.727.9,7.108,5.5,11.205,14.263,12.412,23.159,1.208,8.912-.244,17.993-2.644,26.645-1.529,5.487-3.363,11.663-.5,16.6,4.311,7.414,15.164,6.206,23.312,8.912,11.1,3.7,17.763,17.273,13.895,28.325-2.828,8.072-10.394,15.394-8.285,23.694,1.7,6.65,8.667,9.921,14.308,14.064.581.413,1.131.841,1.666,1.284C1435.932,1617.083,1437.17,1636.253,1435.641,1652.884Z" fill="#9fa3bf"/>
      <path d="M1406.4,1697.857v.978a9.606,9.606,0,0,0-.626-.978h-3.944c-.031-1.957-.107-3.929-.2-5.885-.092-1.987-.229-3.959-.382-5.931a197.075,197.075,0,0,0-10.395-49.3,188.039,188.039,0,0,0-10.119-23.694c-4.113-8.041-8.928-15.7-13.1-23.709a163.964,163.964,0,0,1-16.356-100.417c.443-2.92,4.861-1.682,4.417,1.208a158.47,158.47,0,0,0,1.865,58c3.776,17.228,10.563,33.126,19.276,48.4a261.3,261.3,0,0,1,12.4,23.74,199.351,199.351,0,0,1,8.7,23.419A201.411,201.411,0,0,1,1406.4,1697.857Z" fill="#fff"/>
      <path d="M1406.4,1697.857v.978a9.606,9.606,0,0,0-.626-.978Z" fill="#c7c7e3"/>
    </g>
    <path d="M1317.814,677.983h63.055a30.189,30.189,0,0,1,30.189,30.189v47.515a0,0,0,0,1,0,0h-93.244a0,0,0,0,1,0,0v-77.7A0,0,0,0,1,1317.814,677.983Z" fill="#db8631"/>
    <path d="M470.57,1456.568h17.578a10.657,10.657,0,0,1,10.657,10.657v40.213a0,0,0,0,1,0,0H459.913a0,0,0,0,1,0,0v-40.213A10.657,10.657,0,0,1,470.57,1456.568Z" transform="translate(-459.432 2724.899) rotate(-125.011)" fill="#fb855f"/>
    <path d="M859.034,1614.257h17.578a10.657,10.657,0,0,1,10.657,10.657v40.213a0,0,0,0,1,0,0H848.377a0,0,0,0,1,0,0v-40.213A10.657,10.657,0,0,1,859.034,1614.257Z" transform="translate(1735.646 3279.383) rotate(-180)" fill="#fb855f"/>
    <path d="M823.943,736.467S910.113,786.129,976,797.815c22.007,3.913,41.736,3.589,55.257-4.221.009-.016.018-.032.034-.023a36.252,36.252,0,0,0,5.683-4.071.811.811,0,0,0,.127-.117,34,34,0,0,0,8.561-11.876,37.279,37.279,0,0,0,1.634-4.3c4.067-12.847-3.609-25.209-17.957-36.633-11.445-9.116-27.134-17.647-44.507-25.394-57.845-25.725-134.285-42.573-134.285-42.573C818.671,667.841,795.181,714.878,823.943,736.467Z" fill="#1c5276"/>
    <path d="M1337.9,1672.587H1042.628V750.568a72.584,72.584,0,0,1,72.585-72.585h253.769s-31.081,15.54-31.081,62.162v932.442Z" fill="#ffaa40"/>
    <path d="M887.047,1340.928h0a53.716,53.716,0,0,0,53.66-50.7c6.661-120.5,9.589-243.94,6.766-334.478H829.865c3.716,103.131,4.63,223.138,3.441,330.836A53.741,53.741,0,0,0,887.047,1340.928Z" fill="#68a3c1"/>
    <polygon points="947.292 1059.578 933.991 1047.8 933.967 1047.309 929.403 955.695 931.741 955.579 936.281 1046.7 948.845 1057.826 947.292 1059.578" fill="#251138"/>
    <path d="M887.092,1237.321h0a53.537,53.537,0,0,1,53.451,56.725c-6.209,103.856-15.064,255.644-19.672,322.233H829.865c3.613-75.868,2.517-231.408,3.685-326.09A53.534,53.534,0,0,1,887.092,1237.321Z" fill="#68a3c1"/>
    <path d="M696.735,1303.575h0a53.717,53.717,0,0,0,63.359-37.891c32.574-116.206,62.14-236.088,78.972-325.093L724.244,915.146c-18.685,101.493-43.757,218.855-68.219,323.745A53.74,53.74,0,0,0,696.735,1303.575Z" fill="#68a3c1"/>
    <path d="M747.753,1209.454h0a53.537,53.537,0,0,1,1.319,77.929c-74.525,72.6-183.281,178.854-231.528,224.98l-67.281-61.281c53.759-53.656,157.686-169.385,222.306-238.6A53.534,53.534,0,0,1,747.753,1209.454Z" fill="#68a3c1"/>
    <path d="M947.473,955.748s-3.009-238.7-68.829-272.673C840.91,663.6,762.816,668.885,722.992,695.8c-40.193,27.161-11.806,259.95-11.806,259.95Z" fill="#1c5276"/>
    <g>
      <path d="M821.941,918.05a.233.233,0,0,0-.086-.071c-1.336-1.227-2.59-2.45-3.719-3.7-4.437-4.866-7.3-10.1-8.2-15.692a24.464,24.464,0,0,1-.175-6.14c1.361-13.968,11.727-20.924,27.325-23.142,14.071-2.032,32.382-.2,52.175,3.764,64.252,12.873,143.991,48.311,143.991,48.311s9.57,32.086-13.7,51.671c0,0-102.4-9.84-164.147-35.565C841.739,931.808,830.084,925.341,821.941,918.05Z" fill="#1c5276"/>
      <path d="M1021.375,922.884s11.6-6.7,22.525-5.98,18.183,2.563,29.693-3.086,15.7,7.984,5.495,12.431-27.393,9.148-17.959,19.713,45.648,9.041,35.208,29.063c0,0,16.316,3.355,14.038,10.387s-17.085,4.087-17.085,4.087,7.309,18.57-28.952,4.314c0,0-1.329,9.371-8.712,7.536-11.809-2.935-33.3-19.681-45.907-37.337C989.234,935.317,1021.375,922.884,1021.375,922.884Z" fill="#fd8b66"/>
      <path d="M1096.2,975.613c-1.487,0-12.041-.638-41.056-16.685l.567-1.025c30.4,16.813,40.487,16.545,40.6,16.537l.064,1.169C1096.347,975.61,1096.289,975.613,1096.2,975.613Z" fill="#e56542"/>
      <path d="M1093.12,990.059c-.267-.081-26.834-8.209-42.324-18.627l.653-.972c15.347,10.322,41.746,18.4,42.011,18.479Z" fill="#e56542"/>
      <path d="M1064.027,994.309c-.12-.076-12.219-7.659-21.461-14l.662-.965c9.222,6.329,21.3,13.9,21.421,13.975Z" fill="#e56542"/>
    </g>
    <path d="M924.353,768.162c-.152-.58-15.343-58.119-30.668-70.959l1.5-1.795c15.9,13.317,30.8,69.765,31.43,72.161Z" fill="#251138"/>
    <polygon points="888.037 1075.634 786.445 1071.016 818.769 969.424 867.257 962.497 888.037 1075.634" fill="#68a3c1"/>
    <polygon points="825.793 1026.005 825.599 1023.671 852.093 1021.463 844.16 956.868 846.484 956.582 854.714 1023.594 825.793 1026.005" fill="#251138"/>
    <polygon points="696.753 1058.278 696.04 1056.048 714.656 1050.09 737.589 956.063 739.865 956.618 716.62 1051.921 696.753 1058.278" fill="#251138"/>
    <polygon points="920.871 1616.279 923.825 1587.059 833.777 1583.595 829.865 1616.279 920.871 1616.279" fill="#251138"/>
    <polygon points="542.854 1487.775 517.545 1512.363 450.264 1451.082 475.896 1426.589 542.854 1487.775" fill="#251138"/>
    <path d="M807.546,728.619c-33.529,0-43.245-21.321-52.863-50.863l2.226-.725c10.41,31.972,20.17,52.643,59.437,48.792,37.654-3.692,34.388-55.184,34.35-55.7l2.336-.169c.039.543,3.469,54.289-36.457,58.2C813.385,728.466,810.381,728.619,807.546,728.619Z" fill="#251138"/>
    <path d="M866.574,907.017a.23.23,0,0,1,.058-.1,34.4,34.4,0,0,0,2.346-4.7,42.13,42.13,0,0,0,2.774-17.487c-.417-12.1-4.731-25.845-11.418-40.18-28.187-60.391-98.622-131.116-98.622-131.116-11.58-9.514-25.135-9.283-36.409-3.549-20.179,10.264-27.349,35.6-16.576,55.512,12.875,23.8,45.813,82,79.7,120.414,14.7,16.661,29.58,29.6,43.086,34.388,8.273,2.941,16.013,2.824,22.877-1.354A35.473,35.473,0,0,0,866.574,907.017Z" fill="#1c5276"/>
    <g>
      <path d="M742.907,588.755c-21.434,31.615-19.244,51.669-2.217,64.461,42.417,22.608,87.819,23.565,122.187,6.728A29.583,29.583,0,0,0,875,649.013c14.512-23.386,6.823-49.569-16.088-81.445a67.091,67.091,0,0,0-4.948-6.186c-31.513-34.389-78.768-28.885-109.7,25.2C743.846,587.31,743.381,588.056,742.907,588.755Z" fill="#8e3332"/>
      <path d="M830.2,685.629c-.758,12.616-5,27.125-20.648,26.368-27.428-1.326-34.058-30.156-34.058-30.156s13.284-50.888,13.928-51.305l39.906,9.631v27.467A88.9,88.9,0,0,1,830.2,685.629Z" fill="#eb8f90"/>
      <path d="M830.51,681.9c-39.438-8.183-41.088-30.817-41.088-30.817l35.36-10.913h4.546v27.467S831.078,672.35,830.51,681.9Z" fill="#d16b70"/>
      <path d="M847.524,643.138a26.9,26.9,0,0,1-6.893,11.845,29.393,29.393,0,0,1-13.242,7.627c-44.085,11.845-55.929-45.955-55.929-45.955l.166-6.254.782-28.877c6.537-1.8,26.862-3.932,44.866-5.259.284-.023.568-.047.876-.047,13.55-1,25.631-1.516,29.184-1.066.83,5.97,1.517,11.442,2.062,16.487C851.906,615.494,851.172,629.92,847.524,643.138Z" fill="#eb8f90"/>
      <ellipse cx="776.67" cy="624.273" rx="11.718" ry="15.088" fill="#eb8f90"/>
      <path d="M768.675,621.945c-.158.081,8.242-8.884,14.559,1.184C783.234,623.129,774.055,619.181,768.675,621.945Z" fill="#d16b70"/>
      <path d="M818.15,576.218c13.55-1,29.922-6.053,33.475-5.6.829,5.97-2.774,15.979-2.23,21.024a18.261,18.261,0,0,1-32.6-11.3,17.76,17.76,0,0,1,.474-4.075Z" fill="#8e3332"/>
      <path d="M817.274,576.265c-18,1.327-41.288,2.822-47.826,4.623l2.178,29.513a30.708,30.708,0,0,0,19.069,6.561c15.421,0,28.118-11.157,29.848-25.56a26.831,26.831,0,0,0,.213-3.387,27.813,27.813,0,0,0-2.606-11.8Z" fill="#8e3332"/>
    </g>
    <path d="M885.869,1645.059l92.518,18.475a12.82,12.82,0,0,1,10.31,12.573h0a12.821,12.821,0,0,1-12.821,12.821H844.333l2.644-43.4Z" fill="#251138"/>
    <path d="M485.317,1499.862l37.949,86.377a12.822,12.822,0,0,1-4.382,15.658h0a12.821,12.821,0,0,1-17.856-3.145l-75.472-107.74,37.066-22.735Z" fill="#251138"/>
    <path d="M459.318,1308.495H373.883a15.984,15.984,0,0,1-15.1-21.383,61.657,61.657,0,0,1,115.642,0A15.983,15.983,0,0,1,459.318,1308.495Z" fill="#ebedfc"/>
    <path d="M352.49,663.92l-2.66-85.393a15.983,15.983,0,0,1,20.9-15.762,61.657,61.657,0,0,1,3.6,115.586A15.985,15.985,0,0,1,352.49,663.92Z" fill="#ebedfc"/>
    <path d="M1489.232,1265.737l26.522,1.093a13.208,13.208,0,0,1,10.614,20.266l-14.207,22.422-14.207,22.423A13.208,13.208,0,0,1,1475.1,1331l-12.315-23.514-12.315-23.515a13.208,13.208,0,0,1,12.244-19.325Z" fill="#9fa3bf"/>
    <path d="M469.919,1018.493l9.78,15.661a9.187,9.187,0,0,1-7.474,14.048l-18.453.64-18.453.64a9.187,9.187,0,0,1-8.429-13.5l8.672-16.3,8.672-16.3a9.188,9.188,0,0,1,15.9-.551Z" fill="#9fa3bf"/>
    <circle cx="679.892" cy="378.801" r="21.136" fill="#9fa3bf"/>
    <path d="M763.742,1485.462a28.022,28.022,0,1,1,28.021-28.022A28.054,28.054,0,0,1,763.742,1485.462Zm0-51.36a23.339,23.339,0,1,0,23.338,23.338A23.365,23.365,0,0,0,763.742,1434.1Z" fill="#ebedfc"/>
    <path d="M772.934,853.944c-21.147-10.574-61.986-81.737-63.714-84.761l2.033-1.162c.42.735,42.211,73.57,62.728,83.828Z" fill="#251138"/>
    <rect x="845.033" y="856.994" width="14.901" height="2.341" transform="translate(-357.127 854.148) rotate(-45)" fill="#251138"/>
    <rect x="919.803" y="850.409" width="2.342" height="47.122" transform="translate(-272.601 1306.863) rotate(-63.435)" fill="#251138"/>
    <path d="M1181.522,1044.755a17.162,17.162,0,0,1-12.447-4.786,16.031,16.031,0,0,1-4.944-12.042q0-12.867,6.82-28.208A74.69,74.69,0,0,1,1192.1,972.5q9.543-7.92,17.563-15.673a63.663,63.663,0,0,0,12.959-17.816q4.94-10.061,4.946-24.579a40.56,40.56,0,0,0-19.611-34.809q-9.384-5.769-23.019-5.774-16.715,0-27.623,5.939a37.744,37.744,0,0,0-16.2,16.5q-5.289,10.562-5.285,24.745a16.345,16.345,0,0,1-4.775,12.042q-4.78,4.787-12.619,4.784a17.166,17.166,0,0,1-12.447-4.784,16.041,16.041,0,0,1-4.946-12.042q0-23.091,10.4-40.582a73.372,73.372,0,0,1,29.328-27.549q18.928-10.06,44.164-10.063,22.164,0,39.39,9.073a70.337,70.337,0,0,1,27.282,25.075q10.054,16.006,10.06,37.448,0,18.48-6.138,32a83.413,83.413,0,0,1-16.71,24.249,242.2,242.2,0,0,1-24.215,21.281,35.525,35.525,0,0,0-12.277,17.981q-3.413,11.059-3.409,17.981a16.341,16.341,0,0,1-4.775,12.042Q1189.359,1044.757,1181.522,1044.755Zm0,61.036a22.974,22.974,0,0,1-16.539-6.764,21.511,21.511,0,0,1-6.992-16,21.892,21.892,0,0,1,6.992-16.332,23,23,0,0,1,16.539-6.764,23.422,23.422,0,0,1,16.883,6.764,21.916,21.916,0,0,1,6.99,16.332,21.535,21.535,0,0,1-6.99,16A23.4,23.4,0,0,1,1181.522,1105.791Z" fill="#fff"/>
  </g>
</svg>
